<svg id="_ÎÓÈ_1" data-name="—ÎÓÈ_1" xmlns="http://www.w3.org/2000/svg" viewBox="0 0 439.75 439.75"><defs><style>.cls-1,.cls-3{fill:#173d7a;}.cls-1{opacity:0.5;}.cls-2{fill:#d4ecff;}.cls-4{fill:#396caa;}.cls-5{fill:#fff;}.cls-6{fill:#ff2c9c;}.cls-7{fill:#5793ce;}.cls-8{fill:#b70083;}.cls-9{fill:#d3008d;}</style></defs><path class="cls-1" d="M414,267.22a13.68,13.68,0,0,0-12.37,0L242,359.4c-3.42,2-3.42,5.17,0,7.14a13.62,13.62,0,0,0,12.37,0L414,274.37C417.41,272.39,417.41,269.2,414,267.22Z"/><path class="cls-2" d="M430,231h0a.61.61,0,0,0-.67-.3l-8.69,1.89L424,238.4l5.87-6.68A.62.62,0,0,0,430,231Z"/><path class="cls-3" d="M426.54,235.28a4.36,4.36,0,0,0-2-3.39,1.43,1.43,0,0,0-1.3-.16,55.53,55.53,0,0,0-28.58,7.65l-.63.37,10.8,18.37L408,256a55.6,55.6,0,0,0,16.66-17.27L426,236.5A1.43,1.43,0,0,0,426.54,235.28Z"/><path class="cls-2" d="M407,253.22a16.65,16.65,0,0,0-7.64-13c-4.17-2.37-7.53-.4-7.49,4.4a16.62,16.62,0,0,0,7.63,13C403.68,260,407,258,407,253.22Z"/><polygon class="cls-2" points="340.76 298.03 404.83 258.12 394.03 239.75 328.01 276.33 340.76 298.03"/><ellipse class="cls-2" cx="334.39" cy="287.18" rx="7.27" ry="12.59" transform="translate(-99.41 209.06) rotate(-30.45)"/><ellipse class="cls-2" cx="330.73" cy="289.33" rx="7.27" ry="12.59" transform="translate(-101.01 207.5) rotate(-30.45)"/><rect class="cls-2" x="239.2" y="301.65" width="98.31" height="25.17" transform="translate(-119.47 189.45) rotate(-30.45)"/><path class="cls-2" d="M254.91,344.21c0-5.67-4.08-12.54-9-15.34s-8.9-.47-8.85,5.21,4.08,12.54,9,15.34S255,349.89,254.91,344.21Z"/><ellipse class="cls-4" cx="245.97" cy="339.15" rx="4.27" ry="7.89" transform="translate(-151.27 206.02) rotate(-35.52)"/><path class="cls-5" d="M344,291.87c-.05-5.68-4.08-12.55-9-15.35a6.94,6.94,0,0,0-5.29-1c1.6-1.68,4.23-1.88,7.22-.18,4.94,2.8,9,9.67,9,15.34,0,3.39-1.38,5.58-3.57,6.2A7,7,0,0,0,344,291.87Z"/><path class="cls-6" d="M344,291.87c-.05-5.68-4.08-12.55-9-15.35-2.47-1.4-4.69-1.51-6.3-.57l-4.8,2.82,2.29,3.9a20.1,20.1,0,0,0,8.18,13.91l2.29,3.89,4.8-2.82h0C343,296.71,344,294.71,344,291.87Z"/><path class="cls-2" d="M339.17,294.69c-.05-5.67-4.09-12.54-9-15.34s-8.91-.47-8.86,5.2,4.08,12.55,9,15.35S339.21,300.37,339.17,294.69Z"/><path class="cls-6" d="M248.83,342.43a8.47,8.47,0,0,0-3.89-6.62c-2.13-1.21-3.84-.21-3.82,2.24a8.49,8.49,0,0,0,3.89,6.62C247.14,345.88,248.85,344.87,248.83,342.43Z"/><path class="cls-6" d="M248.83,342.43a8.47,8.47,0,0,0-3.89-6.62,2.68,2.68,0,0,0-2.72-.25l-18,10.56a5.43,5.43,0,0,0,5.5,9.36l18-10.56h0A2.68,2.68,0,0,0,248.83,342.43Z"/><path class="cls-7" d="M268.8,309.38l-2.7-1.53c-1.54-.88-3.59-.66-5.76.62l-9.23,5.42a7,7,0,0,0-3.13,5.53l0,4.62a3.76,3.76,0,0,1-.93,2.32l.35,2.14-2.3-1.32h0a1.21,1.21,0,0,1-.55-1.13l0-4.62a14.63,14.63,0,0,1,6.53-11.51l9.23-5.43c3.08-1.81,6-2.13,8.2-.88l2.69,1.53c1.55.88,3.59.66,5.76-.62l37.21-21.87a1.2,1.2,0,0,1,1.23-.12h0l2.3,1.31-2,.76a3.81,3.81,0,0,1-1.52,2L277,308.5C273.91,310.31,271,310.63,268.8,309.38Z"/><path class="cls-7" d="M268.43,309.18c-1.54-.87-3.59-.65-5.76.62l-9.23,5.43a7,7,0,0,0-3.13,5.52l0,4.62a3.82,3.82,0,0,1-1.69,3c-1,.55-1.73.12-1.73-1l0-4.62a14.67,14.67,0,0,1,6.53-11.52l9.23-5.43c3.09-1.81,6-2.12,8.2-.87l2.69,1.52c1.55.88,3.59.66,5.76-.61L316.51,284c.94-.55,1.72-.11,1.73,1a3.84,3.84,0,0,1-1.7,3l-37.22,21.88c-3.08,1.81-6,2.12-8.19.87Z"/><path class="cls-5" d="M250.19,321.51l0,4.62a.36.36,0,0,1,0,.1,2.61,2.61,0,0,0,.13-.86l0-4.62c0-.13,0-.27,0-.4A5.27,5.27,0,0,0,250.19,321.51Z"/><path class="cls-1" d="M403.37,208.58,299.13,148.22c-5.66-3.28-15.56-2.88-22.11.89L58.26,275c-6.55,3.77-7.27,9.48-1.61,12.76l104.24,60.36c5.66,3.28,15.56,2.89,22.11-.88l218.76-125.9C408.31,217.58,409,211.86,403.37,208.58Z"/><path class="cls-4" d="M157.86,326,49.37,263.21c-3.56-2.07-5.22-4.85-5.1-7.74h0l0-15.74,6,7.07c.39-.26.79-.52,1.21-.76L273.45,118.32c8.81-5.07,22.13-5.6,29.75-1.19l107,61.94,6.7-7.38-.05,15.4h0c.16,3.47-2.31,7.17-7.29,10L187.6,324.84C178.79,329.91,165.47,330.44,157.86,326Z"/><path class="cls-3" d="M99.2,287.49l6.24,3.61c.83.47,1.51,0,1.51-1.14h0a3.6,3.6,0,0,0-1.51-2.87l-6.24-3.61c-.83-.48-1.51,0-1.51,1.14h0A3.61,3.61,0,0,0,99.2,287.49Z"/><path class="cls-7" d="M273.45,118.32c8.81-5.07,22.13-5.6,29.75-1.19l107,61.94,6.7-7.38-.05,15.4h0c.16,3.47-2.31,7.17-7.29,10L187.6,324.84a34.37,34.37,0,0,1-16,4.16l.22-152.17Z"/><path class="cls-2" d="M411.73,164.13,303.24,101.31c-7.61-4.42-20.93-3.88-29.74,1.19L51.58,230.21c-8.81,5.07-9.78,12.76-2.16,17.17L157.9,310.2c7.62,4.41,20.94,3.88,29.75-1.19L409.57,181.3C418.38,176.22,419.34,168.54,411.73,164.13Z"/><path class="cls-5" d="M157.82,311.88,49.34,249.06c-3.93-2.27-5.56-5.42-5-8.63.19,2.61,1.86,5.08,5.1,6.95L157.9,310.2c7.62,4.41,20.94,3.88,29.75-1.19L409.57,181.3c4.26-2.46,6.67-5.53,7.18-8.54.26,3.52-2.2,7.3-7.27,10.22L187.56,310.69C178.75,315.76,165.44,316.29,157.82,311.88Z"/><path class="cls-3" d="M403.37,166.6,299.13,106.24c-5.66-3.28-15.56-2.88-22.11.88L58.26,233c-6.55,3.77-7.27,9.49-1.61,12.77l104.24,60.36c5.66,3.28,15.56,2.88,22.11-.89l218.76-125.9C408.31,175.59,409,169.88,403.37,166.6Z"/><polygon class="cls-2" points="187.15 274.8 113.59 232.33 118.28 229.62 191.84 272.09 187.15 274.8"/><polygon class="cls-2" points="135.97 262.42 98.72 240.91 103.42 238.2 140.66 259.71 135.97 262.42"/><polygon class="cls-6" points="154.04 272.85 141.96 265.88 146.66 263.17 158.74 270.14 154.04 272.85"/><polygon class="cls-5" points="172.28 283.38 160.2 276.41 164.89 273.7 176.97 280.67 172.28 283.38"/><polygon class="cls-5" points="136.38 254.07 106.16 236.62 110.85 233.91 141.08 251.36 136.38 254.07"/><polygon class="cls-2" points="173.28 275.38 143.05 257.93 147.75 255.22 177.98 272.67 173.28 275.38"/><path class="cls-6" d="M150.9,238.07a6,6,0,0,1-5.47,0c-1.52-.87-1.52-2.29,0-3.16a6.06,6.06,0,0,1,5.47,0C152.42,235.78,152.42,237.2,150.9,238.07Z"/><path class="cls-5" d="M159.09,242.8a6.08,6.08,0,0,1-5.48,0c-1.51-.88-1.51-2.29,0-3.17a6.08,6.08,0,0,1,5.48,0C160.6,240.51,160.6,241.92,159.09,242.8Z"/><path class="cls-2" d="M167.27,247.52a6,6,0,0,1-5.48,0c-1.51-.87-1.51-2.29,0-3.16a6.08,6.08,0,0,1,5.48,0C168.78,245.23,168.78,246.65,167.27,247.52Z"/><path class="cls-6" d="M175.46,252.25a6.08,6.08,0,0,1-5.48,0c-1.51-.88-1.51-2.29,0-3.16a6,6,0,0,1,5.48,0C177,250,177,251.37,175.46,252.25Z"/><path class="cls-5" d="M183.64,257a6,6,0,0,1-5.48,0c-1.51-.87-1.51-2.29,0-3.16a6.08,6.08,0,0,1,5.48,0C185.15,254.68,185.15,256.1,183.64,257Z"/><polygon class="cls-6" points="348.15 167.07 335.77 159.92 340.58 157.14 352.96 164.29 348.15 167.07"/><polygon class="cls-5" points="365.4 177.02 353.01 169.87 357.82 167.09 370.21 174.24 365.4 177.02"/><polygon class="cls-5" points="292.83 134.83 280.45 127.68 285.26 124.9 297.65 132.05 292.83 134.83"/><polygon class="cls-5" points="345.39 174.27 328.14 164.32 332.96 161.54 350.2 171.49 345.39 174.27"/><polygon class="cls-2" points="357.77 181.42 350.21 177.05 355.02 174.28 362.59 178.64 357.77 181.42"/><polygon class="cls-7" points="249.94 165.25 240.81 159.97 243.62 158.35 252.75 163.63 249.94 165.25"/><polygon class="cls-7" points="279.45 176.6 245.73 157.14 248.54 155.51 282.26 174.98 279.45 176.6"/><polygon class="cls-7" points="296.31 186.34 283.66 179.04 286.47 177.42 299.12 184.72 296.31 186.34"/><polygon class="cls-7" points="271.72 177.82 253.46 167.28 256.26 165.65 274.53 176.2 271.72 177.82"/><path class="cls-5" d="M309.66,201.84l-12.1-7,12.1-7,12.1,7Zm-7.57-7,7.57,4.37,7.57-4.37-7.57-4.37Z"/><polygon class="cls-7" points="233.78 174.58 224.65 169.3 227.46 167.68 236.59 172.95 233.78 174.58"/><polygon class="cls-7" points="244.32 174.17 230.27 166.06 233.08 164.44 247.13 172.55 244.32 174.17"/><polygon class="cls-7" points="267.5 187.56 248.54 176.6 251.35 174.98 270.31 185.93 267.5 187.56"/><polygon class="cls-7" points="268.21 194.45 237.3 176.6 240.11 174.98 271.02 192.83 268.21 194.45"/><path class="cls-5" d="M293.5,211.17l-12.1-7,12.1-7,12.1,7Zm-7.57-7,7.57,4.37,7.57-4.37-7.57-4.38Z"/><polygon class="cls-7" points="230.97 190.8 209.2 178.23 212.01 176.6 233.78 189.18 230.97 190.8"/><polygon class="cls-7" points="224.65 181.47 214.11 175.39 216.92 173.76 227.46 179.85 224.65 181.47"/><polygon class="cls-7" points="245.73 193.64 228.87 183.91 231.68 182.28 248.54 192.02 245.73 193.64"/><polygon class="cls-7" points="260.48 202.16 249.24 195.67 252.05 194.04 263.29 200.53 260.48 202.16"/><polygon class="cls-7" points="252.75 203.37 234.49 192.83 237.3 191.21 255.56 201.75 252.75 203.37"/><path class="cls-5" d="M277.34,220.5l-12.1-7,12.1-7,12.1,7Zm-7.57-7,7.57,4.37,7.57-4.37-7.57-4.37Z"/><polygon class="cls-7" points="202.17 192.83 193.04 187.56 195.85 185.93 204.98 191.21 202.17 192.83"/><polygon class="cls-7" points="222.54 198.91 197.96 184.72 200.77 183.09 225.35 197.29 222.54 198.91"/><polygon class="cls-7" points="241.51 209.86 226.06 200.94 228.87 199.32 244.32 208.24 241.51 209.86"/><path class="cls-5" d="M261.18,229.83l-12.1-7,12.1-7,12.1,7Zm-7.57-7,7.57,4.37,7.57-4.37-7.57-4.37Z"/><polygon class="cls-7" points="186.01 202.16 176.88 196.88 179.69 195.26 188.82 200.53 186.01 202.16"/><polygon class="cls-7" points="202.17 205.81 181.8 194.04 184.61 192.42 204.98 204.18 202.17 205.81"/><polygon class="cls-7" points="223.25 217.97 207.09 208.65 209.9 207.02 226.06 216.35 223.25 217.97"/><polygon class="cls-7" points="197.25 208.65 188.82 203.78 191.63 202.16 200.06 207.02 197.25 208.65"/><path class="cls-5" d="M245,239.16l-12.1-7,12.1-7,12.1,7Zm-7.57-7,7.57,4.37,7.57-4.37L245,227.8Z"/><polygon class="cls-7" points="169.86 211.49 160.72 206.21 163.53 204.59 172.67 209.86 169.86 211.49"/><polygon class="cls-7" points="187.42 215.95 165.64 203.37 168.45 201.75 190.23 214.32 187.42 215.95"/><polygon class="cls-7" points="197.96 222.03 191.63 218.38 194.44 216.76 200.77 220.41 197.96 222.03"/><polygon class="cls-7" points="207.79 227.71 201.47 224.06 204.28 222.44 210.6 226.09 207.79 227.71"/><polygon class="cls-7" points="181.1 217.97 173.37 213.51 176.18 211.89 183.91 216.35 181.1 217.97"/><path class="cls-5" d="M229.57,248.08l-12.1-7,12.1-7,12.1,7Zm-7.57-7,7.57,4.37,7.57-4.37-7.57-4.37Z"/><path class="cls-6" d="M232.06,242.39h8.56c1.24,0,2.24-.58,2.24-1.3s-1-1.29-2.24-1.29h-8.56v-4.94c0-.72-1-1.3-2.24-1.3s-2.25.58-2.25,1.3v4.94H219c-1.23,0-2.24.58-2.24,1.29s1,1.3,2.24,1.3h8.56v4.94c0,.72,1,1.3,2.25,1.3s2.24-.58,2.24-1.3Z"/><path class="cls-6" d="M264.53,223.73h8.56c1.24,0,2.24-.58,2.24-1.29s-1-1.3-2.24-1.3h-8.56V216.2c0-.72-1-1.3-2.24-1.3s-2.25.58-2.25,1.3v4.94h-8.56c-1.24,0-2.24.58-2.24,1.3s1,1.29,2.24,1.29H260v4.94c0,.72,1,1.3,2.25,1.3s2.24-.58,2.24-1.3Z"/><path class="cls-6" d="M280.85,214.23h8.56c1.24,0,2.25-.58,2.25-1.3s-1-1.29-2.25-1.29h-8.56V206.7c0-.72-1-1.3-2.24-1.3s-2.24.58-2.24,1.3v4.94h-8.56c-1.24,0-2.25.58-2.25,1.29s1,1.3,2.25,1.3h8.56v4.94c0,.72,1,1.29,2.24,1.29s2.24-.57,2.24-1.29Z"/><path class="cls-8" d="M327.15,106l-16.69.26a17.64,17.64,0,0,0-5.26-4.43c-9.18-5.3-23.61-5.71-33.6-1.24l-9.92-9.32-15.26.24c.75-.5,1.53-1,2.34-1.46,21.22-12.24,55.61-12.24,76.83,0a40.74,40.74,0,0,1,9.55,7.44Z"/><polygon class="cls-9" points="246.42 67.25 246.42 91.48 261.68 91.24 261.68 67.01 246.42 67.25"/><polygon class="cls-8" points="271.6 76.33 271.6 100.56 261.68 91.24 261.68 67.01 271.6 76.33"/><path class="cls-8" d="M310.46,82v24.23L288.52,88.34,271.6,100.56V76.33l15.58-7.55s21.44,6.56,22.56,6.84S310.46,82,310.46,82Z"/><polygon class="cls-8" points="327.15 81.74 327.15 105.97 310.46 106.23 310.46 82 327.15 81.74"/><polygon class="cls-9" points="335.13 73.23 335.13 97.46 327.15 105.97 327.15 81.74 335.13 73.23"/><path class="cls-6" d="M327.15,81.74,310.46,82a17.64,17.64,0,0,0-5.26-4.43c-9.18-5.3-23.61-5.71-33.6-1.24L261.68,67l-15.26.24c.75-.5,1.53-1,2.34-1.45,21.22-12.25,55.61-12.25,76.83,0a40.46,40.46,0,0,1,9.55,7.43Z"/><path class="cls-7" d="M266.57,79.31v22.28l-14.44-3.46s.85-13,1.16-13.38S266.57,79.31,266.57,79.31Z"/><path class="cls-3" d="M277.5,101.59v24.23l-1.56,1.66-10.18-5.87s1.58-18.5,1.76-18.87S277.5,101.59,277.5,101.59Z"/><path class="cls-4" d="M257.84,95.33l8.73,8.21c-7.27,5.76-6.41,13.87,2.59,19.07a31.17,31.17,0,0,0,8.34,3.21l-9,9.61,8,7.52c-10.15-1.17-19.84-4-27.71-8.57C230.53,123.85,228,107.7,241.1,95.59Z"/><polygon class="cls-4" points="276.47 118.72 276.47 142.95 256.67 135.31 232.86 112.59 232.95 86.86 258.14 106.83 276.47 118.72"/><path class="cls-2" d="M257.84,71.1l8.73,8.21c-7.27,5.76-6.41,13.87,2.59,19.07a31.17,31.17,0,0,0,8.34,3.21l-9,9.61,8,7.52c-10.15-1.17-19.84-4-27.71-8.57C230.53,99.62,228,83.47,241.1,71.36Z"/><path class="cls-4" d="M276.54,135.3l7.95-8.47c7.39.45,15.05-1,20.7-4.23,5.85-3.37,8.26-8,7.24-12.37l18.94-.29,7.28-7.76c6.37,10.93,2,23.49-13.06,32.2-11.09,6.4-25.77,9.45-40.3,9.16Z"/><polygon class="cls-4" points="285.29 119.31 285.29 143.54 341.49 112.4 341.49 88.16 333.28 91.48 285.29 119.31"/><polygon class="cls-3" points="276.54 111.08 276.54 135.3 285.29 143.54 285.29 119.31 276.54 111.08"/><path class="cls-7" d="M276.54,111.08l7.95-8.48c7.39.45,15.05-1,20.7-4.22,5.85-3.38,8.26-8,7.24-12.38l18.94-.29L338.65,78c6.37,10.93,2,23.49-13.06,32.2-11.09,6.4-25.77,9.45-40.3,9.16Z"/><polygon class="cls-1" points="384.69 134.16 367.46 124.21 384.69 114.27 401.92 124.21 384.69 134.16"/><polygon class="cls-9" points="401.92 111.58 384.69 121.53 384.69 101.64 401.92 91.69 401.92 111.58"/><polygon class="cls-6" points="384.69 101.64 367.46 91.69 384.69 81.74 401.92 91.69 384.69 101.64"/><polygon class="cls-6" points="384.69 121.53 367.46 111.58 367.46 91.69 384.69 101.64 384.69 121.53"/><polygon class="cls-5" points="378.48 110.78 373.66 108 373.66 102.44 378.48 105.22 378.48 110.78"/><polygon class="cls-1" points="370.21 371.8 352.27 361.45 370.21 351.09 388.15 361.45 370.21 371.8"/><polygon class="cls-3" points="388.15 348.3 370.21 358.65 370.21 337.94 388.15 327.58 388.15 348.3"/><polygon class="cls-2" points="370.21 337.94 352.27 327.58 370.21 317.23 388.15 327.58 370.21 337.94"/><polygon class="cls-7" points="370.21 358.65 352.27 348.3 352.27 327.58 370.21 337.94 370.21 358.65"/><polygon class="cls-5" points="363.75 347.46 358.73 344.57 358.73 338.77 363.75 341.67 363.75 347.46"/><ellipse class="cls-1" cx="48.38" cy="341.74" rx="29.24" ry="16.88"/><path class="cls-6" d="M84.73,318.83v-10.2H82.81a23.22,23.22,0,0,0-8.73-8.16c-14.19-8.2-37.21-8.2-51.41,0A23.18,23.18,0,0,0,14,308.63H12v10.15h0c0,5.39,3.52,10.78,10.65,14.89,14.19,8.2,37.21,8.2,51.41,0C81.18,329.58,84.73,324.2,84.73,318.83Z"/><path class="cls-8" d="M74.08,300.47c-7.09-4.1-16.4-6.15-25.7-6.15v45.5c9.3,0,18.61-2.05,25.71-6.15s10.64-9.47,10.64-14.84v-10.2H82.81A23.22,23.22,0,0,0,74.08,300.47Z"/><ellipse class="cls-6" cx="48.38" cy="308.63" rx="36.35" ry="20.99"/><path class="cls-5" d="M74.09,323.47c-14.2,8.19-37.22,8.19-51.41,0-6.81-3.93-10.31-9-10.6-14.18-.3,5.59,3.2,11.24,10.6,15.51,14.19,8.2,37.21,8.2,51.41,0,7.39-4.27,10.89-9.91,10.59-15.51C84.4,314.44,80.89,319.54,74.09,323.47Z"/><path class="cls-5" d="M30.86,315.57a1.63,1.63,0,0,1-1-1.34l0-13.67c0-1,1.47-1.89,3.27-1.89s3.27.85,3.27,1.9l0,11.34,32.91-4c1.77-.22,3.5.43,3.88,1.45s-.76,2-2.52,2.24l-36.87,4.52a5.36,5.36,0,0,1-2.74-.38Z"/></svg>