<svg data-name="—ÎÓÈ_1" xmlns="http://www.w3.org/2000/svg" viewBox="0 0 383.8 383.8"><path d="M125.78 238.92l52.8-30.11c1.93-1.11 1.69-3.06-.54-4.35l-30.38-17.53a8.37 8.37 0 00-7.53-.32l-52.8 30.11c-1.93 1.11-1.69 3.06.54 4.35l30.38 17.54c2.23 1.29 5.6 1.39 7.53.31z" fill="#d4ecff"/><path d="M82.62 206.58V83.32l49-12.82 9-5.21c2.07-1.2 5.69-1.05 8.08.33l8.42 4.86h26.14l-7.74 119a2.36 2.36 0 01-1.39 2.17l-48.9 36.89c-2.07 1.2-5.69 1-8.08-.33l-32.56-18.84c-1.38-.79-2.05-1.82-1.97-2.79z" fill="#396caa"/><path d="M144.4 64.49a9.21 9.21 0 014.33 1.13l8.42 4.86h26.14v123.58a2.36 2.36 0 01-1.39 2.17l-56.64 32.29a7.32 7.32 0 01-3.75.81L120.92 105z" fill="#d4ecff"/><path d="M124.74 228.78a9.27 9.27 0 01-6.46-.07V103.49h6.46z" fill="#5793ce"/><path d="M125.26 105l56.64-32.32c2.07-1.2 1.81-3.29-.58-4.67L148.73 49.2c-2.39-1.39-6-1.54-8.08-.34L84 81.16c-2.07 1.19-1.81 3.28.58 4.66l32.59 18.82c2.4 1.36 6.02 1.53 8.09.36z" fill="#d4ecff"/><path d="M84.59 83.53l32.59 18.82c2.39 1.38 6 1.53 8.08.33l56.64-32.29a3.12 3.12 0 001-.92c.71 1.14.39 2.39-1 3.21L125.26 105c-2.07 1.2-5.69 1-8.08-.33L84.59 85.82c-1.86-1.07-2.43-2.57-1.62-3.75a4.5 4.5 0 001.62 1.46z" fill="#fafdff"/><path d="M123.66 91.88L161.37 70c1-.56.84-1.54-.28-2.19L145.84 59a4.19 4.19 0 00-3.78-.16l-37.71 21.9c-1 .56-.85 1.54.27 2.18l15.25 8.81a4.24 4.24 0 003.79.15z" fill="#173d7a"/><path d="M144 71l2.19-1.26c.13-.08.12-.22 0-.31l-2.11-1.21a.6.6 0 00-.52 0l-2.19 1.27c-.13.07-.11.21 0 .3l2.12 1.21a.63.63 0 00.51 0zM136.71 75.2l2.19-1.26c.13-.07.12-.21 0-.3l-2.11-1.22a.56.56 0 00-.52 0L134 73.66c-.13.08-.11.22 0 .3l2.11 1.22a.57.57 0 00.6.02zM129.41 79.4l2.19-1.26c.13-.08.12-.21 0-.3l-2.11-1.22a.56.56 0 00-.52 0l-2.19 1.26c-.13.08-.11.21 0 .3l2.11 1.22a.57.57 0 00.52 0zM122.11 83.6l2.19-1.26c.13-.08.12-.21 0-.3l-2.11-1.22a.56.56 0 00-.52 0l-2.19 1.26c-.13.08-.11.21 0 .3l2.11 1.22a.57.57 0 00.52 0z" fill="#d4ecff"/><path d="M161.37 70h-.05a1.3 1.3 0 00-.23-.15l-15.25-8.81a4.19 4.19 0 00-3.78-.16L104.4 82.77c-.9-.64-.94-1.51-.05-2l37.71-21.86a4.19 4.19 0 013.78.16l15.25 8.8c1.12.62 1.25 1.6.28 2.13z" fill="#5793ce"/><path d="M110.81 129.4l-21.44-12.28a5.26 5.26 0 01-2.18-4.12v-7.67c0-1.61 1-2.35 2.18-1.65l21.44 12.27a5.24 5.24 0 012.19 4.18v7.66c0 1.56-1 2.3-2.19 1.61z" fill="#173d7a"/><path d="M88.31 103.4a2.1 2.1 0 00-.55 1.59v7.67a5.21 5.21 0 002.24 4.17l21.44 12.28a1.61 1.61 0 001.06.23 1.31 1.31 0 01-1.64.06l-21.49-12.28a5.26 5.26 0 01-2.18-4.12v-7.67c0-1.14.45-1.82 1.12-1.93z" fill="#fff"/><path d="M104.36 121.07l-2-1.14a1.12 1.12 0 01-.48-.91v-2.1c0-.35.21-.51.48-.36l2 1.14a1.11 1.11 0 01.48.91v2.1c0 .35-.21.51-.48.36z" fill="#396caa"/><path d="M97.79 117.27l-2-1.14a1.14 1.14 0 01-.47-.91v-2.1c0-.35.21-.51.47-.36l2 1.14a1.14 1.14 0 01.47.91v2.1c0 .35-.21.51-.47.36z" fill="#fff"/><path d="M110.81 184.8l-21.44-12.27a5.26 5.26 0 01-2.18-4.18v-7.67c0-1.6 1-2.34 2.18-1.65l21.44 12.28a5.21 5.21 0 012.19 4.17v7.67c0 1.61-1 2.35-2.19 1.65z" fill="#173d7a"/><path d="M88.31 158.8a2.14 2.14 0 00-.55 1.6v7.66a5.24 5.24 0 002.24 4.18l21.44 12.27a1.57 1.57 0 001.06.24 1.32 1.32 0 01-1.64.05l-21.49-12.27a5.26 5.26 0 01-2.18-4.18v-7.67c0-1.09.45-1.77 1.12-1.88z" fill="#fff"/><path d="M104.36 176.47l-2-1.13a1.14 1.14 0 01-.48-.91v-2.1c0-.35.21-.52.48-.36l2 1.13a1.12 1.12 0 01.48.91v2.1c0 .35-.21.51-.48.36z" fill="#396caa"/><path d="M97.79 172.68l-2-1.14a1.14 1.14 0 01-.47-.91v-2.1c0-.35.21-.51.47-.36l2 1.13a1.16 1.16 0 01.47.91v2.11c0 .35-.21.51-.47.36z" fill="#fff"/><path d="M110.81 212.5l-21.44-12.27a5.26 5.26 0 01-2.18-4.18v-7.66c0-1.61 1-2.35 2.18-1.65L110.81 199a5.24 5.24 0 012.19 4.18v7.66c0 1.62-1 2.36-2.19 1.66z" fill="#173d7a"/><path d="M88.31 186.5a2.14 2.14 0 00-.55 1.6v7.67a5.22 5.22 0 002.24 4.17l21.44 12.28a1.61 1.61 0 001.06.23 1.3 1.3 0 01-1.64.05l-21.49-12.27a5.26 5.26 0 01-2.18-4.18v-7.66c0-1.1.45-1.77 1.12-1.89z" fill="#fff"/><path d="M104.36 204.18l-2-1.14a1.12 1.12 0 01-.48-.91V200c0-.35.21-.51.48-.36l2 1.13a1.14 1.14 0 01.48.91v2.11c0 .38-.21.54-.48.39z" fill="#396caa"/><path d="M97.79 200.38l-2-1.14a1.14 1.14 0 01-.47-.91v-2.1c0-.35.21-.51.47-.36l2 1.14a1.14 1.14 0 01.47.91V200c0 .37-.21.53-.47.38z" fill="#fff"/><path d="M110.81 157.1l-21.44-12.28a5.23 5.23 0 01-2.18-4.17V133c0-1.61 1-2.35 2.18-1.65l21.44 12.28a5.21 5.21 0 012.19 4.17v7.67c0 1.59-1 2.32-2.19 1.63z" fill="#173d7a"/><path d="M88.31 131.1a2.13 2.13 0 00-.55 1.59v7.67a5.21 5.21 0 002.24 4.17l21.44 12.28a1.55 1.55 0 001.06.23 1.3 1.3 0 01-1.64.06l-21.49-12.28a5.23 5.23 0 01-2.18-4.17V133c0-1.11.45-1.79 1.12-1.9z" fill="#fff"/><path d="M104.36 148.77l-2-1.14a1.12 1.12 0 01-.48-.91v-2.1c0-.35.21-.51.48-.36l2 1.14a1.12 1.12 0 01.48.91v2.1c0 .35-.21.51-.48.36z" fill="#396caa"/><path d="M97.79 145l-2-1.13a1.16 1.16 0 01-.47-.91v-2.1c0-.35.21-.52.47-.36l2 1.13a1.14 1.14 0 01.47.91v2.1c0 .36-.21.48-.47.36z" fill="#fff"/><path d="M129.38 121.55L178.85 93a4.8 4.8 0 002-3.83v-9.45c0-1.47-.89-2.15-2-1.51l-49.47 28.56a4.81 4.81 0 00-2 3.83v9.4c0 1.51.9 2.19 2 1.55z" fill="#5793ce"/><path d="M130.8 118.24l46.63-26.92a2.43 2.43 0 001-1.94v-7.09c0-.75-.46-1.1-1-.77l-46.63 26.92a2.42 2.42 0 00-1 1.94v7.09c-.01.75.44 1.09 1 .77z" fill="#d4ecff" opacity=".4"/><path d="M167.71 93.34l7-4a2.36 2.36 0 001-1.89c0-.73-.44-1.06-1-.75l-7 4a2.38 2.38 0 00-1 1.89c.02.74.46 1.07 1 .75z" fill="#d4ecff"/><path d="M161.78 95.45c0 .73.51 1 1.14.66a2.52 2.52 0 001.14-2c0-.72-.51-1-1.14-.65a2.5 2.5 0 00-1.14 1.99zM157.76 97.77c0 .73.51 1 1.14.66a2.52 2.52 0 001.14-2c0-.73-.51-1-1.14-.66a2.52 2.52 0 00-1.14 2z" fill="#173d7a"/><path d="M153.74 100.1c0 .72.51 1 1.14.66a2.53 2.53 0 001.14-2c0-.73-.51-1-1.14-.66a2.53 2.53 0 00-1.14 2z" fill="#d4ecff"/><path d="M149.71 102.42c0 .73.51 1 1.14.66a2.53 2.53 0 001.14-2c0-.72-.51-1-1.14-.66a2.53 2.53 0 00-1.14 2zM132.76 114.29l2.35-1.35a1.53 1.53 0 00.63-1.21v-2.48c0-.47-.28-.69-.63-.48l-2.35 1.35a1.5 1.5 0 00-.63 1.21v2.48c0 .47.28.68.63.48z" fill="#173d7a"/><path d="M129.38 138.18l49.47-28.56a4.78 4.78 0 002-3.83v-9.43c0-1.48-.89-2.16-2-1.52l-49.47 28.56a4.83 4.83 0 00-2 3.83v9.43c0 1.48.9 2.16 2 1.52z" fill="#5793ce"/><path d="M130.8 134.87L177.43 108a2.43 2.43 0 001-1.94v-7.14c0-.75-.46-1.09-1-.77l-46.63 26.92a2.42 2.42 0 00-1 1.94v7.09c-.01.75.44 1.1 1 .77z" fill="#d4ecff" opacity=".4"/><path d="M167.71 110l7-4a2.35 2.35 0 001-1.89c0-.72-.44-1.06-1-.74l-7 4a2.38 2.38 0 00-1 1.89c.02.74.46 1.03 1 .74z" fill="#d4ecff"/><path d="M161.78 112.08c0 .73.51 1 1.14.66a2.52 2.52 0 001.14-2c0-.73-.51-1-1.14-.66a2.52 2.52 0 00-1.14 2z" fill="#fff"/><path d="M157.76 114.41c0 .72.51 1 1.14.66a2.53 2.53 0 001.14-2c0-.73-.51-1-1.14-.66a2.53 2.53 0 00-1.14 2z" fill="#173d7a"/><path d="M153.74 116.73c0 .73.51 1 1.14.66a2.53 2.53 0 001.14-2c0-.72-.51-1-1.14-.66a2.53 2.53 0 00-1.14 2z" fill="#d4ecff"/><path d="M149.71 119.05c0 .73.51 1 1.14.66a2.52 2.52 0 001.14-2c0-.73-.51-1-1.14-.66a2.52 2.52 0 00-1.14 2zM132.76 130.92l2.35-1.35a1.5 1.5 0 00.63-1.21v-2.48c0-.47-.28-.68-.63-.48l-2.35 1.35a1.53 1.53 0 00-.63 1.21v2.48c0 .47.28.69.63.48z" fill="#173d7a"/><path d="M129.38 154.81l49.47-28.56a4.78 4.78 0 002-3.83V113c0-1.48-.89-2.15-2-1.51L129.38 140a4.83 4.83 0 00-2 3.83v9.44c0 1.5.9 2.18 2 1.54z" fill="#5793ce"/><path d="M130.8 151.51l46.63-26.92a2.46 2.46 0 001-2v-7.09c0-.75-.46-1.09-1-.77L130.8 141.7a2.45 2.45 0 00-1 2v7.09c-.01.7.44 1.04 1 .72z" fill="#d4ecff" opacity=".4"/><path d="M167.71 126.61l7-4a2.34 2.34 0 001-1.88c0-.73-.44-1.07-1-.75l-7 4a2.36 2.36 0 00-1 1.88c.02.73.46 1.07 1 .75z" fill="#d4ecff"/><path d="M161.78 128.72c0 .72.51 1 1.14.66a2.53 2.53 0 001.14-2c0-.73-.51-1-1.14-.66a2.53 2.53 0 00-1.14 2z" fill="#fff"/><path d="M157.76 131c0 .73.51 1 1.14.66a2.52 2.52 0 001.14-2c0-.72-.51-1-1.14-.65a2.5 2.5 0 00-1.14 1.99z" fill="#173d7a"/><path d="M153.74 133.36c0 .73.51 1 1.14.66a2.52 2.52 0 001.14-2c0-.73-.51-1-1.14-.66a2.52 2.52 0 00-1.14 2z" fill="#d4ecff"/><path d="M149.71 135.69c0 .72.51 1 1.14.65a2.5 2.5 0 001.14-2c0-.73-.51-1-1.14-.66a2.52 2.52 0 00-1.14 2.01zM132.76 147.56l2.35-1.36a1.5 1.5 0 00.63-1.21v-2.48c0-.46-.28-.68-.63-.48l-2.35 1.36a1.5 1.5 0 00-.63 1.21v2.48c0 .46.28.68.63.48z" fill="#173d7a"/><path d="M129.38 171.45l49.47-28.56a4.8 4.8 0 002-3.83v-9.44c0-1.47-.89-2.15-2-1.51l-49.47 28.56a4.81 4.81 0 00-2 3.83v9.43c0 1.48.9 2.15 2 1.52z" fill="#5793ce"/><path d="M130.8 168.14l46.63-26.92a2.46 2.46 0 001-1.94v-7.1c0-.74-.46-1.09-1-.76l-46.63 26.91a2.45 2.45 0 00-1 1.95v7.09c-.01.75.44 1.09 1 .77z" fill="#d4ecff" opacity=".4"/><path d="M167.71 143.24l7-4a2.36 2.36 0 001-1.89c0-.73-.44-1.06-1-.75l-7 4a2.37 2.37 0 00-1 1.89c.02.73.46 1.07 1 .75z" fill="#d4ecff"/><path d="M161.78 145.35c0 .73.51 1 1.14.66a2.52 2.52 0 001.14-2c0-.72-.51-1-1.14-.65a2.5 2.5 0 00-1.14 1.99zM157.76 147.67c0 .73.51 1 1.14.66a2.52 2.52 0 001.14-2c0-.73-.51-1-1.14-.66a2.52 2.52 0 00-1.14 2z" fill="#173d7a"/><path d="M153.74 150c0 .72.51 1 1.14.65a2.5 2.5 0 001.14-2c0-.73-.51-1-1.14-.66a2.52 2.52 0 00-1.14 2.01z" fill="#d4ecff"/><path d="M149.71 152.32c0 .73.51 1 1.14.66a2.53 2.53 0 001.14-2c0-.73-.51-1-1.14-.66a2.53 2.53 0 00-1.14 2z" fill="#173d7a"/><path d="M132.76 164.19l2.35-1.35a1.54 1.54 0 00.63-1.22v-2.47c0-.47-.28-.69-.63-.48l-2.35 1.33a1.5 1.5 0 00-.63 1.21v2.48c0 .49.28.7.63.5z" fill="#d4ecff"/><path d="M129.38 188.08l49.47-28.56a4.8 4.8 0 002-3.83v-9.43c0-1.48-.89-2.16-2-1.52l-49.47 28.56a4.81 4.81 0 00-2 3.83v9.43c0 1.44.9 2.16 2 1.52z" fill="#5793ce"/><path d="M130.8 184.77l46.63-26.92a2.43 2.43 0 001-1.94v-7.09c0-.75-.46-1.1-1-.77L130.8 175a2.42 2.42 0 00-1 1.94V184c-.01.75.44 1.1 1 .77z" fill="#d4ecff" opacity=".4"/><path d="M167.71 159.88l7-4a2.36 2.36 0 001-1.89c0-.73-.44-1.06-1-.74l-7 4a2.38 2.38 0 00-1 1.89c.02.72.46 1.05 1 .74z" fill="#d4ecff"/><path d="M161.78 162c0 .73.51 1 1.14.66a2.52 2.52 0 001.14-2c0-.73-.51-1-1.14-.66a2.52 2.52 0 00-1.14 2z" fill="#173d7a"/><path d="M157.76 164.31c0 .72.51 1 1.14.65a2.5 2.5 0 001.14-2c0-.73-.51-1-1.14-.66a2.52 2.52 0 00-1.14 2.01z" fill="#fff"/><path d="M153.74 166.63c0 .73.51 1 1.14.66a2.53 2.53 0 001.14-2c0-.73-.51-1-1.14-.66a2.53 2.53 0 00-1.14 2z" fill="#d4ecff"/><path d="M149.71 169c0 .73.51 1 1.14.66a2.52 2.52 0 001.14-2c0-.73-.51-1-1.14-.66a2.5 2.5 0 00-1.14 2z" fill="#fff"/><path d="M132.76 180.82l2.35-1.35a1.52 1.52 0 00.63-1.21v-2.48c0-.47-.28-.68-.63-.48l-2.35 1.35a1.52 1.52 0 00-.63 1.21v2.48c0 .47.28.66.63.48z" fill="#d4ecff"/><path d="M129.38 204.71l49.47-28.56a4.78 4.78 0 002-3.83v-9.43c0-1.48-.89-2.16-2-1.52l-49.47 28.56a4.83 4.83 0 00-2 3.83v9.44c0 1.47.9 2.15 2 1.51z" fill="#5793ce"/><path d="M130.8 201.4l46.63-26.92a2.43 2.43 0 001-1.94v-7.09c0-.75-.46-1.09-1-.77L130.8 191.6a2.44 2.44 0 00-1 1.94v7.1c-.01.74.44 1.09 1 .76z" fill="#d4ecff" opacity=".4"/><path d="M167.71 176.51l7-4a2.34 2.34 0 001-1.88c0-.73-.44-1.07-1-.75l-7 4a2.36 2.36 0 00-1 1.88c.02.73.46 1.06 1 .75z" fill="#d4ecff"/><path d="M161.78 178.62c0 .72.51 1 1.14.65a2.5 2.5 0 001.14-2c0-.73-.51-1-1.14-.66a2.52 2.52 0 00-1.14 2.01zM157.76 180.94c0 .73.51 1 1.14.66a2.53 2.53 0 001.14-2c0-.72-.51-1-1.14-.66a2.53 2.53 0 00-1.14 2z" fill="#173d7a"/><path d="M153.74 183.26c0 .73.51 1 1.14.66a2.52 2.52 0 001.14-2c0-.73-.51-1-1.14-.66a2.5 2.5 0 00-1.14 2z" fill="#d4ecff"/><path d="M149.71 185.58c0 .73.51 1 1.14.66a2.5 2.5 0 001.14-2c0-.73-.51-1-1.14-.66a2.52 2.52 0 00-1.14 2zM132.76 197.46l2.35-1.36a1.5 1.5 0 00.63-1.21v-2.48c0-.47-.28-.68-.63-.48l-2.35 1.36a1.5 1.5 0 00-.63 1.21v2.5c0 .44.28.66.63.46z" fill="#173d7a"/><path d="M129.38 221.34l49.47-28.55a4.8 4.8 0 002-3.84v-9.43c0-1.47-.89-2.15-2-1.51l-49.47 28.56a4.81 4.81 0 00-2 3.83v9.43c0 1.47.9 2.17 2 1.51z" fill="#5793ce"/><path d="M130.8 218l46.63-26.92a2.46 2.46 0 001-2v-7.09c0-.75-.46-1.09-1-.77l-46.63 27.01a2.45 2.45 0 00-1 2v7.09c-.01.68.44 1.04 1 .68z" fill="#d4ecff" opacity=".4"/><path d="M167.71 193.14l7-4a2.36 2.36 0 001-1.89c0-.73-.44-1.06-1-.75l-7 4a2.37 2.37 0 00-1 1.89c.02.73.46 1.07 1 .75z" fill="#d4ecff"/><path d="M160.51 196.15c0 1.37 1 1.93 2.16 1.24a4.73 4.73 0 002.15-3.73c0-1.37-1-1.93-2.15-1.24a4.78 4.78 0 00-2.16 3.73z" fill="#fff"/><path d="M152.18 201c0 .72.51 1 1.14.65a2.5 2.5 0 001.14-2c0-.73-.51-1-1.14-.66a2.52 2.52 0 00-1.14 2.01z" fill="#173d7a"/><path d="M148.16 203.35c0 .73.51 1 1.14.66a2.53 2.53 0 001.14-2c0-.73-.51-1-1.14-.66a2.53 2.53 0 00-1.14 2z" fill="#d4ecff"/><path d="M144.13 205.67c0 .73.51 1 1.14.66a2.52 2.52 0 001.14-2c0-.72-.51-1-1.14-.65a2.5 2.5 0 00-1.14 1.99z" fill="#173d7a"/><path d="M132.76 214.09l2.35-1.36a1.5 1.5 0 00.63-1.21V209c0-.46-.28-.68-.63-.48l-2.35 1.36a1.5 1.5 0 00-.63 1.21v2.48c0 .51.28.72.63.52z" fill="#d4ecff"/><path fill="#173d7a" d="M330.4 247.21l-97.16-56.13 109.53 5.16 6.8 6.51 1.48 9.76-1.08 6.63-3.26 8.06-3.25 6.31-3.65 4.74-9.41 8.96z"/><path d="M248.73 139.91l-.5-.29c-3.89-2.08-9.16-1.7-15 1.65l-132.72 76.61a8.92 8.92 0 011.53 1.48l5-2.9 26.86 58.37 13.9 19 9.1 3.17 9.1-3.55 44.15-25.09 87.51-50L329.75 199l8.38-2.66 7.54-.45z" fill="#d4ecff"/><path d="M143.85 282.54c0-13.74 9.68-30.51 21.57-37.37v2.36c-10.76 6.22-19.52 21.39-19.52 33.82s8.76 17.49 19.52 11.28l165-95.25c6-3.44 11.34-3.76 15.25-1.5l-96.92-56-.5-.29c-3.89-2.08-9.16-1.7-15 1.65l-132.74 76.64a8.92 8.92 0 011.53 1.48l5-2.9 26.86 58.37L145 290a21.72 21.72 0 01-1.15-7.46z" fill="#d4ecff"/><path d="M143.85 281.22v.7c.14-6.85 2.64-14.4 6.57-21.08l-.55-.35c-3.71 6.63-6.02 14.04-6.02 20.73zM330.4 196.07l-165 95.25c-10.51 6.06-19.1 1.38-19.5-10.42v.45c0 12.44 8.76 17.49 19.52 11.28l165-95.25c6-3.44 11.34-3.76 15.25-1.5l-4.67-2.71c-3.16-.23-6.76.68-10.6 2.9zM133.93 273.51l-26.86-58.36-5 2.9c-.2-.24-.42-.47-.63-.69l-.9.52a8.92 8.92 0 011.53 1.48l5-2.9 26.86 58.37L145 290a18.67 18.67 0 01-.62-2.15z" fill="#fff"/><path d="M68.26 189c-11.9 6.87-21.58 23.63-21.58 37.37 0 6.63 2.26 11.36 5.94 13.71h.06c.22.13.44.26.67.38l96.81 55.94-5.93-10.71.69-10.7 1.88-6 2.86-6.41s2.36-4.39 2.51-4.49 3.5-4.43 3.5-4.43l3.26-3.41 3.54-2.26 2.95-2.89z" fill="#5793ce"/><path d="M330.4 247.21v-2.37c10.77-6.22 19.53-21.39 19.53-33.82s-8.76-17.49-19.53-11.28L165.42 295c-11.89 6.87-21.57 1.29-21.57-12.45s9.68-30.51 21.57-37.37v2.36c-10.76 6.22-19.52 21.39-19.52 33.82s8.76 17.49 19.52 11.28l165-95.25c11.9-6.87 21.58-1.28 21.58 12.45s-9.7 30.5-21.6 37.37z" fill="#173d7a"/><path d="M253.14 213.69l-46.21-26.08a7.94 7.94 0 00-7.14.37l-26.4 15.61c-2.11 1.25-2.32 3.1-.47 4.14l46.2 26.08a8 8 0 007.15-.37l26.4-15.61c2.1-1.25 2.33-3.1.47-4.14z" fill="#5793ce"/><path d="M218 228.15l-47.49-26.76a2.41 2.41 0 01-1.41-2v-5.29l2.65 2.17 29.59-17.5c2.41-1.43 6.07-1.62 8.18-.43l45.4 25.58 3.47-2.05.07 5.34a3.39 3.39 0 01-2 2.65l-30.22 17.87c-2.49 1.42-6.16 1.61-8.24.42z" fill="#d3008d"/><path d="M256.85 199.74L209.35 173c-2.11-1.19-5.77-1-8.18.42L171 191.28c-2.4 1.42-2.64 3.54-.53 4.73l47.49 26.76c2.11 1.19 5.78 1 8.18-.42l30.22-17.87c2.36-1.43 2.64-3.55.49-4.74z" fill="#ff2c9c"/><path d="M217.91 222.77L170.42 196a2.24 2.24 0 01-1.33-2.63 2.85 2.85 0 001.22 1.22l47.5 26.77c2.11 1.18 5.77 1 8.18-.43l30.22-17.87a3.87 3.87 0 001.86-2.1c.55 1.13 0 2.49-1.76 3.51l-30.22 17.87c-2.4 1.43-6.09 1.66-8.18.43zM207 192.8c1.75-1 1.73-2.68 0-3.67a7 7 0 00-6.37.06c-1.75 1-1.73 2.68 0 3.68a7 7 0 006.37-.07z" fill="#fff"/><ellipse cx="213.53" cy="196.47" rx="4.51" ry="2.6" transform="rotate(-.6 212.882 195.924)" fill="#fff"/><ellipse cx="223.24" cy="201.94" rx="4.51" ry="2.6" transform="translate(-2.1 2.34)" fill="#fff"/><path fill="#5793ce" d="M190.71 246.9l-38.72-22.58-2.43 1.39 38.72 22.57 2.43-1.38zM189.63 234.01l-27.03-15.76-2.43 1.39 27.03 15.76 2.43-1.39zM180.68 234.92l-23.39-13.64-2.43 1.39 23.39 13.64 2.43-1.39zM196.01 243.86l-11.69-6.82-2.43 1.39 11.69 6.82 2.43-1.39zM281.08 193.72l-38.72-22.58-2.43 1.39 38.72 22.57 2.43-1.38zM280 180.83l-27.03-15.76-2.43 1.39 27.03 15.76 2.43-1.39zM271.05 181.74l-23.38-13.63-2.43 1.38 23.38 13.64 2.43-1.39zM286.39 190.68l-11.69-6.81-2.43 1.38 11.69 6.82 2.43-1.39z"/><path d="M248.73 139.91l-.5-.29c-3.89-2.08-9.16-1.7-15 1.65l-11.14 6.43 15.66 9a1.72 1.72 0 001.94.08l19.09-11.08z" fill="#abd6f4"/><path d="M273 123.14l-5-2.9 18.53-10.7a1 1 0 000-1.83l-18.97-10.93a3.48 3.48 0 00-3.17 0l-18.53 10.69-5-2.9 18.53-10.7a14.68 14.68 0 0113.23 0l18.93 10.93c3.65 2.11 3.65 5.53 0 7.64z" fill="#ff2c9c"/><path d="M281.1 124.42c0-2.69-1.63-5.81-3.65-7l-33.57-19.36a2.34 2.34 0 00-2.37-.2l-40.08 23.29 38.76 29.21 39.49-22.92a2 2 0 00.35-.2 3.43 3.43 0 001.07-2.82z" fill="#d4ecff"/><path d="M240.19 150.36l39.49-22.92a2 2 0 00.35-.2 3.43 3.43 0 001.07-2.82 8.93 8.93 0 00-1-3.89l-45 26z" fill="#173d7a"/><path d="M237.67 150.26l-33.58-19.39c-2-1.16-3.64-4.28-3.64-7 0-2.68 1.63-3.92 3.64-2.76l33.58 19.39c2 1.16 3.65 4.28 3.65 7 0 2.69-1.64 3.92-3.65 2.76z" fill="#5793ce"/><path d="M238.07 140.34L204.5 121a2.33 2.33 0 00-2.42-.17 2.59 2.59 0 012 .35l33.58 19.39c2 1.16 3.65 4.28 3.65 7a3.25 3.25 0 01-1.24 2.93c1-.3 1.64-1.42 1.64-3.11.01-2.76-1.62-5.88-3.64-7.05z" fill="#fff"/><path d="M232.64 143.72l-4-2.33a1.74 1.74 0 01-.73-1.39c0-.53.33-.78.73-.55l4 2.33a1.75 1.75 0 01.73 1.39c0 .54-.37.83-.73.55z" fill="#fff"/><path d="M237.19 116.16a1.35 1.35 0 000-2.56 4.9 4.9 0 00-4.43.05 1.35 1.35 0 000 2.56 4.92 4.92 0 004.43-.05z" fill="#5793ce"/><path d="M244 120a1.35 1.35 0 000-2.56 4.87 4.87 0 00-4.43 0 1.35 1.35 0 000 2.56 4.92 4.92 0 004.43 0zM250.71 123.78a1.35 1.35 0 000-2.56 4.84 4.84 0 00-4.43 0 1.35 1.35 0 000 2.56 4.92 4.92 0 004.43 0z" fill="#fff"/><path d="M194 324.51l105.29-60.83c2.56-1.47 2.24-4.05-.71-5.75-2.95-1.7-7.41-1.89-10-.41L183.3 318.35c-2.56 1.47-2.24 4 .71 5.75 2.99 1.7 7.41 1.9 9.99.41z" fill="#efefef"/><path d="M307.87 242.88a.4.4 0 00-.44-.19l-5.6 1.16 2.16 3.77 3.83-4.26a.44.44 0 00.05-.48z" fill="#d4ecff"/><path d="M305.63 245.63a2.78 2.78 0 00-1.26-2.2.94.94 0 00-.84-.11 35.71 35.71 0 00-18.44 4.74l-.4.24 6.83 11.89 2.06-1.34a35.7 35.7 0 0010.83-11l.9-1.42a.91.91 0 00.32-.8z" fill="#5793ce"/><path d="M292.94 257.05a10.71 10.71 0 00-4.83-8.41c-2.67-1.55-4.84-.3-4.85 2.79a10.72 10.72 0 004.83 8.41c2.67 1.55 4.85.3 4.85-2.79z" fill="#d4ecff"/><path fill="#d4ecff" d="M250.03 285.47l41.49-25.28-6.83-11.89-42.73 23.12 8.07 14.05z"/><path d="M251.71 281.76a12.65 12.65 0 00-5.71-9.93c-3.16-1.83-5.72-.36-5.73 3.29a12.67 12.67 0 005.71 9.94c3.16 1.83 5.72.36 5.73-3.3z" fill="#d4ecff"/><path d="M249.35 283.12a12.68 12.68 0 00-5.71-9.93c-3.16-1.83-5.73-.36-5.74 3.29a12.7 12.7 0 005.71 9.94c3.16 1.83 5.73.36 5.74-3.3z" fill="#d4ecff"/><path fill="#d4ecff" d="M184.721 304.307l54.868-31.525 8.071 14.046-54.868 31.525z"/><path d="M194.48 314.65a12.68 12.68 0 00-5.71-9.93c-3.16-1.84-5.73-.36-5.74 3.29a12.65 12.65 0 005.71 9.93c3.16 1.84 5.73.36 5.74-3.29z" fill="#d4ecff"/><path d="M192.43 313.46a8.39 8.39 0 00-3.87-6c-2-1.17-3.58-.38-3.48 1.78a8.35 8.35 0 003.86 6c2.06 1.17 3.59.38 3.49-1.78z" fill="#396caa"/><path d="M252.13 281.52a12.65 12.65 0 00-5.71-9.93 4.47 4.47 0 00-3.4-.67c1-1.07 2.74-1.18 4.65-.07a12.67 12.67 0 015.71 9.94c0 2.18-.92 3.57-2.34 4a4.5 4.5 0 001.09-3.27z" fill="#fff"/><path d="M252.13 281.52a12.65 12.65 0 00-5.71-9.93c-1.58-.92-3-1-4-.41l-3.16 1.82 1.45 2.52a12.91 12.91 0 005.18 9l1.44 2.52 3.11-1.78a4 4 0 001.69-3.74z" fill="#5793ce"/><path d="M249 283.31a12.65 12.65 0 00-5.71-9.93c-3.16-1.84-5.72-.36-5.73 3.29a12.67 12.67 0 005.7 9.93c3.18 1.84 5.74.4 5.74-3.29z" fill="#d4ecff"/><path d="M189.84 315.06l-3.48-6.06-11.63 6.68a3.5 3.5 0 00-1.29 4.77 3.5 3.5 0 004.77 1.29z" fill="#ff2c9c"/><path d="M190.57 313.46a5.48 5.48 0 00-2.46-4.29c-1.37-.79-2.47-.15-2.48 1.43a5.46 5.46 0 002.47 4.28c1.36.79 2.47.12 2.47-1.42z" fill="#ff2c9c"/><path d="M203.63 292.32l-1.72-1a3.71 3.71 0 00-3.71.36l-6 3.44a4.51 4.51 0 00-2.05 3.53v3a2.44 2.44 0 01-.61 1.49l.21 1.38-1.47-.87a.77.77 0 01-.35-.73v-3a9.42 9.42 0 014.27-7.37l6-3.44c2-1.14 3.87-1.32 5.28-.51l1.73 1a3.66 3.66 0 003.71-.36L233 275.4a.77.77 0 01.79-.07l1.47.86-1.27.48a2.46 2.46 0 01-1 1.29l-24.1 13.84c-1.97 1.2-3.89 1.33-5.26.52z" fill="#5793ce"/><path d="M203.4 292.19a3.66 3.66 0 00-3.71.36l-6 3.43a4.52 4.52 0 00-2.05 3.54v3a2.45 2.45 0 01-1.11 1.92c-.61.35-1.11.06-1.11-.64v-3a9.43 9.43 0 014.28-7.37l6-3.43c2-1.15 3.88-1.33 5.28-.51l1.73 1a3.71 3.71 0 003.71-.36l24.09-13.85c.62-.35 1.11-.06 1.11.65a2.44 2.44 0 01-1.11 1.91l-24.09 13.85c-2 1.14-3.88 1.33-5.29.51z" fill="#5793ce"/><path d="M191.58 300v3a2.09 2.09 0 00.08-.55v-3a2.11 2.11 0 010-.26 3.29 3.29 0 00-.08.81z" fill="#fff"/><path d="M180.3 329.38l11-6.36c1.33-.77 1.16-2.11-.37-3a5.75 5.75 0 00-5.19-.22l-11 6.36c-1.33.77-1.16 2.11.37 3a5.73 5.73 0 005.19.22zM63.74 313.03l-13.76-7.95 13.76-7.95 13.77 7.95-13.77 7.95z" fill="#efefef"/><path fill="#d3008d" d="M77.51 296.07l-13.77 7.94v-15.89l13.77-7.94v15.89z"/><path fill="#ff2c9c" d="M63.74 288.12l-13.76-7.94 13.76-7.95 13.77 7.95-13.77 7.94zM63.74 304.01l-13.76-7.94v-15.89l13.76 7.94v15.89z"/><path fill="#efefef" d="M25.06 216.77l-15.33-8.85 15.33-8.85 15.33 8.85-15.33 8.85z"/><path fill="#173d7a" d="M40.39 197.88l-15.33 8.85v-17.7l15.33-8.85v17.7z"/><path fill="#d4ecff" d="M25.06 189.03l-15.33-8.85 15.33-8.86 15.33 8.86-15.33 8.85z"/><path fill="#5793ce" d="M25.06 206.73l-15.33-8.85v-17.7l15.33 8.85v17.7z"/><path d="M339.29 186.81l-30.71-17.72c-1.88-1.09-1.64-3 .53-4.25l29.65-17.11a8.15 8.15 0 017.35-.31l30.7 17.73c1.88 1.09 1.65 3-.53 4.24l-29.64 17.12c-2.18 1.25-5.47 1.39-7.35.3z" fill="#efefef"/><path d="M378.07 156.58V146h-23.75l-8.21-4.74a8.15 8.15 0 00-7.35.31L331.1 146h-23.78v10.89a2.14 2.14 0 001.26 2l30.71 17.73a8.18 8.18 0 007.35-.31l29.64-17.12a2.89 2.89 0 001.79-2.61z" fill="#396caa"/><path d="M342.7 140.5a8.47 8.47 0 00-3.94 1l-7.66 4.5h-23.78v10.89a2.14 2.14 0 001.26 2l30.71 17.73a6.56 6.56 0 003.41.72z" fill="#396caa"/><path d="M310 146h-2.69v10.89a2.14 2.14 0 001.26 2l1.43.82zM339.76 176.77a8.45 8.45 0 005.88-.07v-12.37h-5.88z" fill="#5793ce"/><path d="M339.29 165.68L308.58 148c-1.88-1.08-1.64-3 .53-4.24l29.65-17.12a8.18 8.18 0 017.35-.3l30.7 17.66c1.88 1.08 1.65 3-.53 4.24l-29.64 17.12c-2.18 1.27-5.47 1.41-7.35.32z" fill="#d4ecff"/><path d="M376.28 146.17l-29.64 17.12a8.18 8.18 0 01-7.35.31l-30.71-17.73a3 3 0 01-.94-.83 2 2 0 00.94 2.91l30.71 17.73c1.88 1.09 5.17.95 7.35-.3l29.64-17.12c1.69-1 2.21-2.34 1.47-3.41a4.09 4.09 0 01-1.47 1.32z" fill="#fff"/><path d="M366.78 159.37a2.72 2.72 0 01-1.24 2.15c-.68.4-1.24.08-1.24-.71a2.74 2.74 0 011.24-2.15c.69-.4 1.24-.08 1.24.71zM370.77 157.07a2.74 2.74 0 01-1.24 2.15c-.68.39-1.24.07-1.24-.72a2.77 2.77 0 011.24-2.15c.69-.35 1.24-.07 1.24.72zM374.76 154.77a2.73 2.73 0 01-1.24 2.14c-.68.4-1.24.08-1.24-.71a2.77 2.77 0 011.24-2.15c.68-.39 1.24-.05 1.24.72z" fill="#d4ecff"/><path d="M341.1 154.69l-14.36-8.29c-.89-.51-.78-1.4.24-2l13.87-8a3.81 3.81 0 013.44-.14l14.37 8.29c.88.51.77 1.4-.25 2l-13.87 8a3.81 3.81 0 01-3.44.14z" fill="#5793ce"/><path d="M342.48 147.75l-2-1.15c-.12-.07-.11-.2 0-.28l1.92-1.11a.54.54 0 01.48 0l2 1.15c.12.07.1.2 0 .28l-1.88 1.09a.52.52 0 01-.52.02z" fill="#d4ecff"/><path d="M326.74 146.4a1 1 0 01.2-.14l13.87-8a3.81 3.81 0 013.44-.14l14.33 8.27c.81-.59.86-1.38 0-1.85l-14.37-8.29a3.81 3.81 0 00-3.44.14l-13.87 8c-.9.61-1.05 1.5-.16 2.01z" fill="#396caa"/></svg>