<svg id="_ÎÓÈ_1" data-name="—ÎÓÈ_1" xmlns="http://www.w3.org/2000/svg" xmlns:xlink="http://www.w3.org/1999/xlink" viewBox="0 0 400 400"><defs><linearGradient id="linear-gradient" x1="200" y1="376.81" x2="200" gradientUnits="userSpaceOnUse"><stop offset="0" stop-color="#ff99cf"/><stop offset="0.94" stop-color="#ff2c9c"/></linearGradient><linearGradient id="linear-gradient-2" y1="329.54" x2="399.99" y2="329.54" gradientUnits="userSpaceOnUse"><stop offset="0.43" stop-color="#d3008d"/><stop offset="0.53" stop-color="#ff2c9c"/></linearGradient></defs><path d="M400,0V269.42L232.42,366.16l-6.33,3.65a52.16,52.16,0,0,1-52.18,0l-6.14-3.55L0,269.42V0Z" fill="url(#linear-gradient)"/><path d="M232.42,366.16l-6.33,3.65a52.16,52.16,0,0,1-52.18,0l-6.14-3.55L0,269.42v12.85l167.77,96.85,6.14,3.54a52.19,52.19,0,0,0,52.18,0l6.33-3.66L400,282.27V269.42Z" fill="url(#linear-gradient-2)"/><rect x="349.47" y="208.63" width="1.75" height="5.08" transform="translate(467.94 -180.63) rotate(75.63)" fill="#5793ce"/><rect x="346.96" y="211.08" width="1.75" height="5.08" transform="translate(468.4 -176.36) rotate(75.62)" fill="#5793ce"/><rect x="344.45" y="213.53" width="1.75" height="5.08" transform="translate(468.89 -172.08) rotate(75.62)" fill="#5793ce"/><rect x="341.93" y="215.98" width="1.75" height="5.08" transform="translate(469.4 -167.8) rotate(75.63)" fill="#5793ce"/><path d="M222.73,336,112.42,272.29c-3.12-1.8-2.72-5,.88-7l75.11-43.35c3.6-2.08,9.06-2.31,12.18-.51L310.9,285.09c3.12,1.8,2.73,5-.88,7l-75.11,43.35C231.31,337.55,225.86,337.78,222.73,336Z" fill="#d3008d" opacity="0.6"/><path d="M315,159.81,202.85,95.12a4.29,4.29,0,0,0-3.84-.51h0l-.18.08-.05,0-3.65,1.72,4,2a1.7,1.7,0,0,0,0,.22l0,92.1c0,4.61,2.86,10,6.37,12l109.14,63,.62,5.13,4-1.9c1.31-.77,2.14-2.51,2.14-5l0-92.1C321.35,167.22,318.49,161.84,315,159.81Z" fill="#173d7a"/><path d="M315,159.81,202.85,95.12a4.29,4.29,0,0,0-3.84-.51h0l-.18.08-.05,0-3.65,1.72,4,2a1.7,1.7,0,0,0,0,.22l0,60.7,51,40.32,69.29-34.87A12.57,12.57,0,0,0,315,159.81Z" fill="#396caa"/><path d="M316.85,161.26l-11,4.62,8.3,6.39,6.93-3A16.16,16.16,0,0,0,316.85,161.26Z" fill="#274f89"/><path d="M311.33,270.34,199.2,205.65c-3.52-2-6.37-7.41-6.38-12l0-92.09c0-4.61,2.85-6.71,6.37-4.68l112.13,64.69c3.51,2,6.37,7.41,6.37,12l0,92.09C317.69,270.27,314.84,272.36,311.33,270.34Z" fill="#d4ecff"/><path d="M307.6,263.49,202.87,203.1c-3.22-1.85-5.83-6.78-5.83-11l0-84.27c0-4.22,2.61-6.13,5.82-4.28l104.73,60.39c3.22,1.85,5.83,6.78,5.83,11l0,84.28C313.42,263.43,310.81,265.34,307.6,263.49Z" fill="#fff"/><path d="M307.6,263.49,202.87,203.1c-3.22-1.85-5.83-6.78-5.83-11l0-84.27c0-4.22,2.61-6.13,5.82-4.28l104.73,60.39c3.22,1.85,5.83,6.78,5.83,11l0,84.28C313.42,263.43,310.81,265.34,307.6,263.49Z" fill="#fff"/><path d="M313,273.2l-15.08-2L200.59,215c-3.12-1.8-8.58-1.58-12.18.5l-69,39.81-9.12-1.2v5.17h0a3.55,3.55,0,0,0,2.09,3.2l110.31,63.68c3.13,1.8,8.58,1.58,12.18-.5L310,282.32c2-1.17,3-2.68,3-4.1h0Z" fill="#173d7a"/><path d="M239.87,237.69l-6.92-4h-76l-37.48,21.63-9.12-1.2v5.17h0a3.55,3.55,0,0,0,2.09,3.2l110.31,63.68a11.31,11.31,0,0,0,6.29,1.18Z" fill="#396caa"/><path d="M114.37,254.65l-4.05-.53v5.17h0a3.55,3.55,0,0,0,2.09,3.2l2,1.12Z" fill="#5793ce"/><path d="M223.85,326.69a14.13,14.13,0,0,0,10.34-.64V314.51H223.85Z" fill="#274f89"/><path d="M222.73,321,112.42,257.32c-3.12-1.8-2.72-4.95.88-7l75.11-43.35c3.6-2.08,9.06-2.31,12.18-.51L310.9,270.12c3.12,1.8,2.73,4.95-.88,7L234.91,320.5C231.31,322.58,225.86,322.81,222.73,321Z" fill="#d4ecff"/><path d="M310,275.26l-75.11,43.35c-3.6,2.08-9,2.31-12.18.51L112.42,255.43a4.14,4.14,0,0,1-1.94-2.12c-.48,1.47.14,3,1.94,4L222.73,321c3.13,1.8,8.58,1.57,12.18-.51L310,277.15c2.42-1.4,3.39-3.28,2.82-4.91A5.89,5.89,0,0,1,310,275.26Z" fill="#fff"/><path d="M159.34,236.23l-5-2.88c-.4-.23-.35-.63.11-.9l5.89-3.4a1.75,1.75,0,0,1,1.57-.07l5,2.89c.4.23.35.63-.11.9l-5.9,3.4A1.69,1.69,0,0,1,159.34,236.23Z" fill="#173d7a"/><path d="M167.05,240.68l-5-2.88c-.4-.23-.35-.63.11-.9l5.89-3.4a1.73,1.73,0,0,1,1.56-.07l5,2.89c.4.23.35.63-.12.9l-5.89,3.4A1.69,1.69,0,0,1,167.05,240.68Z" fill="#173d7a"/><path d="M174.76,245.13l-5-2.88c-.41-.23-.36-.63.11-.9l5.89-3.4a1.73,1.73,0,0,1,1.56-.07l5,2.89c.4.23.35.63-.11.9l-5.89,3.4A1.69,1.69,0,0,1,174.76,245.13Z" fill="#173d7a"/><path d="M185.42,241.46l-5-2.88c-.41-.23-.35-.64.11-.91l4.94-2.85a1.75,1.75,0,0,1,1.57-.07l5,2.89c.4.23.35.63-.11.9l-5,2.85A1.73,1.73,0,0,1,185.42,241.46Z" fill="#173d7a"/><path d="M193.12,245.91l-5-2.88c-.4-.23-.35-.64.12-.91l4.94-2.85a1.73,1.73,0,0,1,1.56-.07l5,2.89c.4.23.35.63-.12.9l-4.94,2.85A1.75,1.75,0,0,1,193.12,245.91Z" fill="#173d7a"/><path d="M200.83,250.36l-5-2.88c-.4-.23-.35-.64.11-.9l5-2.86a1.73,1.73,0,0,1,1.56-.07l5,2.89c.4.23.35.63-.11.9l-4.94,2.85A1.75,1.75,0,0,1,200.83,250.36Z" fill="#173d7a"/><path d="M208.54,254.81l-5-2.88c-.4-.23-.35-.64.11-.91l5-2.85a1.73,1.73,0,0,1,1.56-.07l5,2.89c.4.23.35.63-.11.9l-5,2.85A1.73,1.73,0,0,1,208.54,254.81Z" fill="#173d7a"/><path d="M216.25,259.26l-5-2.88c-.4-.23-.35-.64.11-.9l4.94-2.86a1.72,1.72,0,0,1,1.57-.06l5,2.88c.4.23.35.63-.11.9l-4.95,2.85A1.73,1.73,0,0,1,216.25,259.26Z" fill="#173d7a"/><path d="M224,263.71l-5-2.88c-.4-.23-.35-.64.12-.9l4.94-2.86a1.71,1.71,0,0,1,1.57-.06l5,2.88c.4.23.35.63-.12.9l-4.94,2.85A1.73,1.73,0,0,1,224,263.71Z" fill="#173d7a"/><path d="M231.66,268.16l-5-2.88c-.4-.23-.35-.64.11-.9l4.95-2.86a1.69,1.69,0,0,1,1.56-.06l5,2.88c.41.23.35.63-.11.9l-4.94,2.85A1.75,1.75,0,0,1,231.66,268.16Z" fill="#173d7a"/><path d="M239.37,272.61l-5-2.88c-.4-.23-.35-.64.11-.9l4.95-2.86a1.69,1.69,0,0,1,1.56-.06l5,2.88c.4.23.35.63-.11.9l-4.95,2.85A1.73,1.73,0,0,1,239.37,272.61Z" fill="#173d7a"/><path d="M247.08,277.06l-5-2.88c-.4-.23-.35-.64.11-.9l5-2.86a1.69,1.69,0,0,1,1.56-.06l5,2.88c.4.23.35.63-.11.9l-5,2.85A1.73,1.73,0,0,1,247.08,277.06Z" fill="#173d7a"/><path d="M254.79,281.51l-5-2.88c-.41-.23-.36-.64.11-.9l4.94-2.86a1.72,1.72,0,0,1,1.57-.06l5,2.88c.4.23.35.63-.11.9l-4.95,2.85A1.73,1.73,0,0,1,254.79,281.51Z" fill="#173d7a"/><path d="M196.77,239.35l-5-2.88c-.4-.23-.35-.63.11-.9l5-2.86a1.76,1.76,0,0,1,1.56-.06l5,2.88c.41.23.36.64-.11.9l-4.94,2.86A1.78,1.78,0,0,1,196.77,239.35Z" fill="#396caa"/><path d="M189,234.84,184,232c-.4-.23-.35-.63.11-.9l5-2.85a1.73,1.73,0,0,1,1.56-.07l5,2.88c.4.23.35.64-.11.91l-5,2.85A1.73,1.73,0,0,1,189,234.84Z" fill="#396caa"/><path d="M181.12,230.31l-10.75-6.2c-.41-.24-.35-.64.11-.91l4.94-2.85a1.75,1.75,0,0,1,1.57-.07l10.75,6.21c.4.23.35.63-.12.9l-4.94,2.86A1.76,1.76,0,0,1,181.12,230.31Z" fill="#173d7a"/><path d="M186.59,224.81l-8.72-5c-.4-.23-.35-.63.11-.9l5-2.85a1.73,1.73,0,0,1,1.56-.07l8.72,5c.4.23.35.63-.11.9l-4.94,2.86A1.78,1.78,0,0,1,186.59,224.81Z" fill="#173d7a"/><path d="M204.48,243.8l-5-2.88c-.4-.23-.35-.63.11-.9l5-2.86a1.76,1.76,0,0,1,1.56-.06l5,2.88c.4.23.35.64-.11.9l-5,2.86A1.76,1.76,0,0,1,204.48,243.8Z" fill="#396caa"/><path d="M212.19,248.25l-5-2.88c-.4-.23-.35-.63.11-.9l4.95-2.86a1.76,1.76,0,0,1,1.56-.06l5,2.88c.4.23.35.64-.11.9l-4.95,2.86A1.76,1.76,0,0,1,212.19,248.25Z" fill="#173d7a"/><path d="M219.9,252.7l-5-2.88c-.4-.23-.35-.63.11-.9l4.94-2.86a1.78,1.78,0,0,1,1.57-.06l5,2.88c.4.23.35.64-.11.9l-4.95,2.86A1.76,1.76,0,0,1,219.9,252.7Z" fill="#173d7a"/><path d="M227.6,257.15l-5-2.88c-.4-.23-.35-.63.12-.9l4.94-2.86a1.76,1.76,0,0,1,1.56-.06l5,2.88c.4.23.35.64-.12.9l-4.94,2.86A1.78,1.78,0,0,1,227.6,257.15Z" fill="#173d7a"/><path d="M235.31,261.6l-5-2.88c-.4-.23-.35-.63.11-.9l4.95-2.86a1.76,1.76,0,0,1,1.56-.06l5,2.88c.4.23.35.64-.11.9l-4.94,2.86A1.75,1.75,0,0,1,235.31,261.6Z" fill="#173d7a"/><path d="M243,266.05l-5-2.88c-.4-.23-.35-.63.11-.9l5-2.86a1.76,1.76,0,0,1,1.56-.06l5,2.88c.4.23.35.64-.11.9L244.58,266A1.72,1.72,0,0,1,243,266.05Z" fill="#173d7a"/><path d="M250.73,270.5l-5-2.88c-.4-.23-.35-.63.11-.9l4.94-2.86a1.78,1.78,0,0,1,1.57-.06l5,2.88c.4.23.35.64-.11.9l-5,2.86A1.72,1.72,0,0,1,250.73,270.5Z" fill="#173d7a"/><path d="M258.44,275l-5-2.88c-.4-.23-.35-.63.12-.9l4.94-2.86a1.78,1.78,0,0,1,1.57-.06l5,2.88c.4.23.35.64-.12.9L260,274.89A1.72,1.72,0,0,1,258.44,275Z" fill="#173d7a"/><path d="M266.14,279.4l-5-2.88c-.4-.23-.35-.63.11-.9l4.95-2.86a1.76,1.76,0,0,1,1.56-.06l5,2.88c.41.23.35.64-.11.9l-4.94,2.86A1.75,1.75,0,0,1,266.14,279.4Z" fill="#173d7a"/><path d="M279.85,287.31,269,281c-.4-.23-.35-.64.11-.91l4.94-2.85a1.75,1.75,0,0,1,1.57-.07l10.89,6.29c.4.23.35.64-.12.9l-4.94,2.86A1.69,1.69,0,0,1,279.85,287.31Z" fill="#173d7a"/><path d="M294.85,278.65l-9.19-5.31c-.4-.23-.35-.63.11-.9l5-2.85a1.73,1.73,0,0,1,1.56-.07l9.19,5.31c.4.23.35.63-.11.9l-4.94,2.86A1.78,1.78,0,0,1,294.85,278.65Z" fill="#173d7a"/><path d="M218,242.93l-5-2.88c-.4-.23-.35-.64.11-.9l5-2.86a1.72,1.72,0,0,1,1.56-.06l5,2.88c.4.23.35.63-.11.9l-5,2.86A1.76,1.76,0,0,1,218,242.93Z" fill="#173d7a"/><path d="M210.08,238.37l-5-2.88c-.4-.23-.35-.64.11-.9l5-2.86a1.72,1.72,0,0,1,1.56-.06l5,2.88c.4.23.35.63-.11.9l-5,2.86A1.76,1.76,0,0,1,210.08,238.37Z" fill="#173d7a"/><path d="M202.18,233.81l-5-2.88c-.4-.23-.35-.64.11-.9l4.95-2.86a1.69,1.69,0,0,1,1.56-.06l5,2.88c.4.23.35.63-.11.9l-4.95,2.86A1.76,1.76,0,0,1,202.18,233.81Z" fill="#396caa"/><path d="M194.28,229.25l-5-2.88c-.4-.23-.35-.64.11-.9l4.95-2.86a1.69,1.69,0,0,1,1.56-.06l5,2.88c.4.23.35.63-.11.9l-4.95,2.85A1.73,1.73,0,0,1,194.28,229.25Z" fill="#173d7a"/><path d="M225.69,247.38l-5-2.88c-.4-.23-.35-.64.11-.9l4.94-2.86a1.78,1.78,0,0,1,1.57-.06l5,2.88c.4.23.35.63-.11.9l-4.95,2.86A1.76,1.76,0,0,1,225.69,247.38Z" fill="#173d7a"/><path d="M233.39,251.83l-5-2.88c-.4-.23-.35-.64.12-.9l4.94-2.86a1.76,1.76,0,0,1,1.56-.06l5,2.88c.4.23.35.63-.12.9L235,251.77A1.78,1.78,0,0,1,233.39,251.83Z" fill="#173d7a"/><path d="M241.1,256.28l-5-2.88c-.4-.23-.35-.64.11-.9l4.95-2.86a1.76,1.76,0,0,1,1.56-.06l5,2.88c.4.23.35.63-.11.9l-4.94,2.86A1.78,1.78,0,0,1,241.1,256.28Z" fill="#173d7a"/><path d="M248.81,260.73l-5-2.88c-.4-.23-.35-.64.11-.9l4.95-2.86a1.76,1.76,0,0,1,1.56-.06l5,2.88c.4.23.35.63-.11.9l-4.95,2.86A1.76,1.76,0,0,1,248.81,260.73Z" fill="#173d7a"/><path d="M256.52,265.18l-5-2.88c-.4-.23-.35-.64.11-.9l4.94-2.86a1.78,1.78,0,0,1,1.57-.06l5,2.88c.4.23.35.63-.11.9l-4.95,2.86A1.76,1.76,0,0,1,256.52,265.18Z" fill="#173d7a"/><path d="M264.23,269.63l-5-2.88c-.4-.23-.35-.64.12-.9l4.94-2.86a1.78,1.78,0,0,1,1.57-.06l5,2.88c.4.23.35.63-.12.9l-4.94,2.86A1.76,1.76,0,0,1,264.23,269.63Z" fill="#173d7a"/><path d="M271.93,274.08l-5-2.88c-.4-.23-.35-.63.11-.9l4.95-2.86a1.76,1.76,0,0,1,1.56-.06l5,2.88c.41.23.36.64-.11.9L273.5,274A1.78,1.78,0,0,1,271.93,274.08Z" fill="#173d7a"/><path d="M279.64,278.53l-5-2.88c-.4-.23-.35-.63.11-.9l4.95-2.86a1.76,1.76,0,0,1,1.56-.06l5,2.88c.4.23.35.64-.11.9l-4.95,2.86A1.76,1.76,0,0,1,279.64,278.53Z" fill="#173d7a"/><path d="M287.35,283l-5-2.88c-.4-.23-.35-.63.11-.9l4.95-2.86a1.76,1.76,0,0,1,1.56-.06l5,2.88c.4.23.35.64-.11.9l-4.95,2.86A1.76,1.76,0,0,1,287.35,283Z" fill="#173d7a"/><path d="M213.92,231.92l-5-2.88c-.4-.23-.35-.63.11-.9l5-2.85a1.73,1.73,0,0,1,1.56-.07l5,2.88c.4.23.35.64-.11.9l-5,2.86A1.69,1.69,0,0,1,213.92,231.92Z" fill="#173d7a"/><path d="M206.25,227.5l-5-2.88c-.4-.24-.35-.64.11-.91l4.95-2.85a1.73,1.73,0,0,1,1.56-.07l5,2.88c.4.24.35.64-.11.91l-4.95,2.85A1.73,1.73,0,0,1,206.25,227.5Z" fill="#173d7a"/><path d="M198.58,223.07l-5-2.88c-.4-.23-.35-.64.11-.91l5-2.85a1.73,1.73,0,0,1,1.56-.07l5,2.89c.4.23.35.63-.11.9L200.15,223A1.75,1.75,0,0,1,198.58,223.07Z" fill="#173d7a"/><path d="M190.91,218.64l-5-2.88c-.4-.23-.35-.64.11-.9L191,212a1.72,1.72,0,0,1,1.56-.06l5,2.88c.4.23.35.63-.11.9l-4.94,2.86A1.78,1.78,0,0,1,190.91,218.64Z" fill="#173d7a"/><path d="M198.8,214.09l-5-2.88c-.4-.24-.35-.64.11-.91l1.63-.94a1.75,1.75,0,0,1,1.57-.07l5,2.89c.4.23.35.63-.11.9l-1.64.94A1.73,1.73,0,0,1,198.8,214.09Z" fill="#173d7a"/><path d="M208.81,219.87l-5-2.89c-.4-.23-.35-.63.11-.9l1.63-.94a1.75,1.75,0,0,1,1.57-.07l5,2.88c.4.24.35.64-.11.91l-1.64.94A1.73,1.73,0,0,1,208.81,219.87Z" fill="#173d7a"/><path d="M216.44,224.28l-5-2.89c-.4-.23-.35-.63.12-.9l1.63-.94a1.73,1.73,0,0,1,1.56-.07l5,2.88c.4.24.35.64-.12.91l-1.63.94A1.75,1.75,0,0,1,216.44,224.28Z" fill="#173d7a"/><path d="M224.08,228.69l-5-2.89c-.4-.23-.35-.63.11-.9l1.64-.94a1.73,1.73,0,0,1,1.56-.07l5,2.88c.4.24.35.64-.11.91l-1.63.94A1.75,1.75,0,0,1,224.08,228.69Z" fill="#173d7a"/><path d="M231.72,233.09l-5-2.88c-.4-.23-.35-.63.11-.9l1.64-.94a1.73,1.73,0,0,1,1.56-.07l5,2.88c.4.23.35.64-.11.91l-1.64.94A1.69,1.69,0,0,1,231.72,233.09Z" fill="#173d7a"/><path d="M274.36,257.71l-5-2.88c-.4-.23-.35-.64.11-.9l1.63-1a1.78,1.78,0,0,1,1.57-.06l5,2.88c.4.23.35.64-.11.9l-1.64.95A1.76,1.76,0,0,1,274.36,257.71Z" fill="#173d7a"/><path d="M282,262.12l-5-2.88c-.4-.23-.35-.64.12-.9l1.63-.95a1.78,1.78,0,0,1,1.57-.06l5,2.88c.4.23.35.64-.12.9l-1.63.95A1.76,1.76,0,0,1,282,262.12Z" fill="#173d7a"/><path d="M289.63,266.53l-5-2.88c-.4-.23-.35-.64.11-.9l1.64-.95a1.76,1.76,0,0,1,1.56-.06l5,2.88c.4.23.35.64-.11.9l-1.63,1A1.78,1.78,0,0,1,289.63,266.53Z" fill="#173d7a"/><path d="M297.27,270.94l-5-2.88c-.4-.23-.35-.64.11-.9l1.64-1a1.76,1.76,0,0,1,1.56-.06l5,2.88c.4.23.35.63-.11.9l-1.64.95A1.76,1.76,0,0,1,297.27,270.94Z" fill="#173d7a"/><path d="M221.63,236.37l-5-2.88c-.4-.23-.35-.63.11-.9l4.94-2.85a1.75,1.75,0,0,1,1.57-.07l5,2.88c.4.23.35.64-.11.9l-4.95,2.86A1.69,1.69,0,0,1,221.63,236.37Z" fill="#173d7a"/><path d="M229.34,240.82l-5-2.88c-.41-.23-.36-.63.11-.9l4.94-2.85a1.75,1.75,0,0,1,1.57-.07l5,2.88c.4.23.35.64-.12.9l-4.94,2.86A1.69,1.69,0,0,1,229.34,240.82Z" fill="#173d7a"/><path d="M237,245.27l-5-2.88c-.4-.23-.35-.63.12-.9l4.94-2.85a1.73,1.73,0,0,1,1.56-.07l5,2.88c.41.23.36.64-.11.9l-4.94,2.86A1.72,1.72,0,0,1,237,245.27Z" fill="#173d7a"/><path d="M244.75,249.72l-5-2.88c-.4-.23-.35-.63.11-.9l4.95-2.85a1.73,1.73,0,0,1,1.56-.07l5,2.88c.4.23.35.64-.11.9l-4.94,2.86A1.72,1.72,0,0,1,244.75,249.72Z" fill="#173d7a"/><path d="M252.46,254.17l-5-2.88c-.4-.23-.35-.63.11-.9l4.95-2.85a1.73,1.73,0,0,1,1.56-.07l5,2.88c.4.23.35.64-.11.91l-5,2.85A1.69,1.69,0,0,1,252.46,254.17Z" fill="#173d7a"/><path d="M260.17,258.63l-5-2.89c-.4-.23-.35-.63.11-.9l4.94-2.85a1.75,1.75,0,0,1,1.57-.07l5,2.88c.4.23.35.64-.11.91l-4.95,2.85A1.73,1.73,0,0,1,260.17,258.63Z" fill="#173d7a"/><path d="M267.87,263.08l-5-2.89c-.4-.23-.35-.63.12-.9l4.94-2.85a1.73,1.73,0,0,1,1.56-.07l5,2.88c.4.23.35.64-.12.91L269.44,263A1.75,1.75,0,0,1,267.87,263.08Z" fill="#173d7a"/><path d="M275.58,267.53l-5-2.89c-.4-.23-.35-.63.11-.9l4.95-2.85a1.73,1.73,0,0,1,1.56-.07l5,2.88c.4.23.35.64-.11.91l-4.94,2.85A1.75,1.75,0,0,1,275.58,267.53Z" fill="#173d7a"/><path d="M283.29,272l-5-2.89c-.4-.23-.35-.63.11-.9l4.95-2.85a1.73,1.73,0,0,1,1.56-.07l5,2.88c.4.23.35.64-.11.91l-4.95,2.85A1.73,1.73,0,0,1,283.29,272Z" fill="#173d7a"/><path d="M177.56,236.92l-14.7-8.48c-.4-.23-.35-.64.11-.91l4.95-2.85a1.73,1.73,0,0,1,1.56-.07l14.7,8.49c.4.23.35.64-.11.9l-4.94,2.86A1.72,1.72,0,0,1,177.56,236.92Z" fill="#173d7a"/><path d="M272.25,291.59l-14.7-8.48c-.4-.23-.35-.64.12-.9l4.94-2.86a1.71,1.71,0,0,1,1.57-.06l14.69,8.48c.41.23.36.64-.11.9l-4.94,2.86A1.72,1.72,0,0,1,272.25,291.59Z" fill="#173d7a"/><path d="M241.43,283.63l-5-2.88c-.4-.24-.35-.64.11-.91l5.89-3.4a1.74,1.74,0,0,1,1.57-.06l5,2.88c.4.23.35.63-.12.9l-5.89,3.4A1.73,1.73,0,0,1,241.43,283.63Z" fill="#173d7a"/><path d="M185.46,251.31l-8-4.61c-.4-.23-.35-.63.12-.9l5.89-3.4a1.73,1.73,0,0,1,1.56-.07l8,4.61c.4.23.35.64-.11.91l-5.89,3.4A1.76,1.76,0,0,1,185.46,251.31Z" fill="#173d7a"/><path d="M234,279.34l-8-4.61c-.4-.23-.35-.63.11-.9l5.89-3.4a1.75,1.75,0,0,1,1.57-.07l8,4.61c.4.23.35.64-.11.9l-5.89,3.41A1.78,1.78,0,0,1,234,279.34Z" fill="#173d7a"/><path d="M196.58,257.73l-8-4.61c-.4-.23-.35-.63.12-.9l5.89-3.4a1.73,1.73,0,0,1,1.56-.07l8,4.61c.4.23.35.64-.11.91l-5.89,3.4A1.76,1.76,0,0,1,196.58,257.73Z" fill="#173d7a"/><path d="M196.21,248.79l34.71,20a.48.48,0,0,1,0,.9l-6,3.47a1.72,1.72,0,0,1-1.56,0l-34.7-20Z" fill="#173d7a"/><path d="M263,291.7l5.56,3.21c.33.19.29.52-.09.74L266,297a1.42,1.42,0,0,1-1.28,0l-5.56-3.21c-.33-.19-.29-.52.09-.74l2.41-1.39A1.42,1.42,0,0,1,263,291.7Z" fill="#173d7a"/><path d="M255.2,287.21l5.56,3.21c.33.19.29.52-.09.74l-2.41,1.39a1.42,1.42,0,0,1-1.28.05l-5.56-3.21c-.33-.19-.29-.52.09-.74l2.41-1.39A1.42,1.42,0,0,1,255.2,287.21Z" fill="#173d7a"/><path d="M247.49,282.76l5.56,3.21c.33.19.29.52-.09.74l-2.41,1.39a1.42,1.42,0,0,1-1.28,0l-5.56-3.21c-.33-.19-.29-.52.09-.74l2.41-1.39A1.42,1.42,0,0,1,247.49,282.76Z" fill="#173d7a"/><path d="M259.46,284.75,265,288c.32.19.28.52-.1.74l-2.41,1.39a1.42,1.42,0,0,1-1.28.06l-5.56-3.21c-.33-.19-.28-.52.09-.74l2.41-1.4A1.47,1.47,0,0,1,259.46,284.75Z" fill="#173d7a"/><path d="M267.73,175.17,263,172.42a2,2,0,0,1-.82-1.54h0c0-.6.34-.87.78-.62L267.7,173a2,2,0,0,1,.81,1.54h0C268.52,175.15,268.17,175.43,267.73,175.17Z" fill="#d4ecff"/><path d="M279.1,181.74l-7-4.06a2,2,0,0,1-.82-1.54h0c0-.6.34-.87.79-.62l7,4.07a2,2,0,0,1,.82,1.54h0C279.9,181.72,279.54,182,279.1,181.74Z" fill="#d4ecff"/><path d="M265.37,200.63l-4.78-2.76a2,2,0,0,1-.82-1.54h0c0-.59.34-.87.79-.61l4.77,2.76a2,2,0,0,1,.82,1.54h0C266.16,200.61,265.81,200.89,265.37,200.63Z" fill="#d4ecff"/><path d="M275.5,206.48l-7-4.06a2,2,0,0,1-.82-1.54h0c0-.6.34-.87.79-.62l7,4.07a2,2,0,0,1,.82,1.54h0C276.3,206.46,275.94,206.74,275.5,206.48Z" fill="#d4ecff"/><path d="M254.64,172.09l-3-1.72a2,2,0,0,1-.82-1.54h0c0-.6.34-.87.78-.62l3,1.72a2,2,0,0,1,.82,1.54h0C255.44,172.07,255.08,172.34,254.64,172.09Z" fill="#d4ecff"/><path d="M264.82,182.44l-9.11-5.26a2,2,0,0,1-.82-1.54h0c0-.6.35-.87.79-.62l9.11,5.26a2,2,0,0,1,.82,1.54h0C265.62,182.42,265.27,182.69,264.82,182.44Z" fill="#d4ecff"/><path d="M258.84,187.92l-3-1.72a2,2,0,0,1-.82-1.54h0c0-.59.34-.87.78-.61l3,1.72a2,2,0,0,1,.82,1.54h0C259.64,187.9,259.28,188.18,258.84,187.92Z" fill="#d4ecff"/><path d="M279,217.45l-8-4.59a2,2,0,0,1-.82-1.54h0c0-.6.34-.87.78-.62l8,4.6a2,2,0,0,1,.82,1.54h0C279.81,217.44,279.46,217.71,279,217.45Z" fill="#d4ecff"/><path d="M257.92,196.33l-1.91-1.1a2,2,0,0,1-.82-1.54h0c0-.6.34-.87.78-.62l1.91,1.11a1.94,1.94,0,0,1,.82,1.54h0C258.71,196.31,258.36,196.59,257.92,196.33Z" fill="#d4ecff"/><path d="M258.53,205.62l-2.38-1.37a2,2,0,0,1-.82-1.54h0c0-.59.34-.87.79-.61l2.37,1.37a2,2,0,0,1,.82,1.54h0C259.32,205.6,259,205.88,258.53,205.62Z" fill="#d4ecff"/><path d="M267.78,211l-6.27-3.62a2,2,0,0,1-.82-1.54h0c0-.59.34-.86.78-.61l6.27,3.62a2,2,0,0,1,.82,1.54h0C268.57,210.94,268.22,211.22,267.78,211Z" fill="#d4ecff"/><path d="M260.73,211.37l-4.51-2.61a2,2,0,0,1-.81-1.54h0c0-.59.34-.87.78-.61l4.51,2.6a2,2,0,0,1,.82,1.54h0C261.53,211.35,261.17,211.62,260.73,211.37Z" fill="#d4ecff"/><path d="M285.86,221.42,283,219.75a1.94,1.94,0,0,1-.82-1.54h0c0-.59.34-.87.78-.61l2.89,1.67a1.94,1.94,0,0,1,.82,1.54h0C286.65,221.4,286.3,221.68,285.86,221.42Z" fill="#d4ecff"/><path d="M269.93,194.33l-8-4.6a2,2,0,0,1-.82-1.54h0c0-.6.34-.87.78-.61l8,4.59a2,2,0,0,1,.82,1.54h0C270.73,194.31,270.38,194.58,269.93,194.33Z" fill="#d4ecff"/><path d="M269.67,189.7l-13.88-8a2,2,0,0,1-.82-1.54h0c0-.6.34-.87.78-.62l13.88,8a2,2,0,0,1,.82,1.54h0C270.46,189.68,270.11,190,269.67,189.7Z" fill="#d4ecff"/><path d="M263.9,195.31l-8-4.6a2,2,0,0,1-.82-1.54h0c0-.59.34-.87.79-.61l8,4.6a1.94,1.94,0,0,1,.82,1.54h0C264.69,195.29,264.34,195.57,263.9,195.31Z" fill="#d4ecff"/><path d="M276,197.82l-2.9-1.68a2,2,0,0,1-.82-1.54h0c0-.59.34-.87.79-.61l2.89,1.67a2,2,0,0,1,.82,1.54h0C276.77,197.8,276.42,198.07,276,197.82Z" fill="#d4ecff"/><path d="M300.57,194.13l-17.14-9.89a2,2,0,0,1-.82-1.54h0c0-.59.35-.87.79-.61L300.54,192a2,2,0,0,1,.81,1.54h0C301.36,194.12,301,194.39,300.57,194.13Z" fill="#d4ecff"/><path d="M265.65,205.27l-9.57-5.53a2,2,0,0,1-.82-1.54h0c0-.6.34-.87.78-.62l9.58,5.53a2,2,0,0,1,.82,1.54h0C266.45,205.25,266.1,205.52,265.65,205.27Z" fill="#d4ecff"/><path d="M258.62,169.92l-7-4.07a1.94,1.94,0,0,1-.82-1.54h0c0-.59.34-.87.78-.61l7,4.06a2,2,0,0,1,.82,1.54h0C259.42,169.9,259.07,170.17,258.62,169.92Z" fill="#d4ecff"/><path d="M260.47,215.68l-8.15-4.7a2,2,0,0,1-.82-1.54h0c0-.6.34-.87.78-.62l8.15,4.71a2,2,0,0,1,.82,1.54h0C261.26,215.67,260.91,215.94,260.47,215.68Z" fill="#d4ecff"/><path d="M52,222.77l42-24.45c8.32-4.8,16.16-5.56,22.09-2.14s9.19,10.6,9.19,20.2v3.08l-.93.59v-3.67c0-9.26-3.1-16.15-8.72-19.4s-13.15-2.49-21.17,2.14l-42,24.45a.45.45,0,0,1-.63-.17A.46.46,0,0,1,52,222.77Z" fill="#d4ecff"/><path d="M183,193.65V99c0-18.94,13.34-42.06,29.75-51.53,8-4.63,15.61-5.37,21.33-2.06s8.88,10.23,8.88,19.51v6.59l-.93.93V64.94c0-8.94-3-15.58-8.41-18.71s-12.67-2.4-20.41,2.07C197,57.62,183.9,80.37,183.9,99v94.63c0,15.7-9.23,34.28-21.76,45.46v-1.24C174.17,226.81,183,208.86,183,193.65Z" fill="#d4ecff"/><path d="M242.94,74.43h0a37.18,37.18,0,0,1,19-9.28c11.71-1.79,16.55,11.91,16.55,11.91a75.3,75.3,0,0,1,1.31,11.33c-.05,4.21-.35,19.51-.35,19.51L242.27,86.5h0a.47.47,0,0,1-.26-.41V75.23C242.32,74.92,242.63,74.74,242.94,74.43Z" fill="#173d7a"/><path d="M269.27,65.72,234.06,45.43l.14.5c-5.43-3.5-13.63-3.88-24.6,4.16-21.78,16-24.4,38.22-25.51,42.39s-.65,30.58-.65,30.58-.08,63.69-.15,71.1-2.23,15.72-6.39,24.69-14.85,19.87-14.85,19.87v13c1.7,14,7.66,17.28,16.52,18.08,7.15.65,14.77-4.51,20.86-10.14l-.37.38v13c1.7,14,7.66,17.29,16.52,18.09s18.44-7.32,24.94-14.19,12-17.36,15-26.82,2-21.69,2-21.69.07-69.63.14-83.35.51-11.33,5-25.13,16.43-23.46,16.43-23.46l28.64-8.53Z" fill="#d4ecff"/><path d="M208,289.88c-.48-.65-6.76-4.86-8.35-12.27a57.7,57.7,0,0,1-.8-10.38s0-3.49.11-6.65l.21-.18v-1.25c-.06.06-.12.1-.17.16,0-.72.05-1.39.08-2,.18-3.29-2.25-10.31-2.25-10.31s-3.45-9.41-13.73-9.77c-9.12-.32-18.73,6.24-20.77,7.72v-4.25l-.42.27c0-.57,0-1.15,0-1.72l.21-.18v-1.24L162,238c0-.72.06-1.39.09-2,.18-3.29-2.25-10.31-2.25-10.31s-3.45-9.4-13.73-9.77c-9.13-.32-18.73,6.24-20.77,7.72v-4.24l-.93.59v7.43c0,9,3,15.78,8.45,19.14l0,0,.2.11.15.09.1.05L171,268.6l-.05-.05Z" fill="#173d7a"/><path d="M153.12,217.47a8.53,8.53,0,0,0-.78-.35l-.45-.23-35.78-20.71a19.2,19.2,0,0,0-14.52-.54c-8,2.91-49.61,27.9-49.61,27.9L89.19,245h0l.1,0,36.9,21.26s20.88-12.93,35.33-21.28l.93-.53c5.9-3.4,10.59-5.93,12.06-6.32,8.91-2.36,15.11.51,16.72,1.4Z" fill="#d4ecff"/><path d="M191.24,239.53l.43.25Z" fill="#d4ecff"/><path d="M280,95.72h0a37.1,37.1,0,0,1,19-9.28c11.71-1.8,16.56,11.91,16.56,11.91a75.61,75.61,0,0,1,1.3,11.33c0,4.21-.35,19.51-.35,19.51l-37.14-21.4h0a.43.43,0,0,1-.25-.4V96.52C279.33,96.21,279.64,96,280,95.72Z" fill="#173d7a"/><path d="M215.22,291.57c4.09,0,8.63-1.37,13.32-4.08,16.28-9.4,29.53-32.35,29.53-51.15V141.71c0-18.65,13.14-41.4,29.29-50.73,7.74-4.46,15-5.2,20.41-2.06s8.41,9.77,8.41,18.71v21.15a.47.47,0,0,0,.93,0V107.63c0-9.28-3.15-16.21-8.88-19.51s-13.3-2.58-21.33,2.06c-16.41,9.47-29.75,32.59-29.75,51.53v94.63c0,18.51-13,41.09-29.07,50.35-7.68,4.43-14.88,5.16-20.26,2.05s-8.35-9.7-8.35-18.57v-11.1c0-9.6-3.27-16.78-9.19-20.2s-13.77-2.66-22.09,2.14l-42,24.45a.46.46,0,0,0-.17.63.45.45,0,0,0,.63.17l42-24.45c8-4.63,15.54-5.39,21.16-2.14s8.73,10.14,8.73,19.4v11.1c0,9.21,3.13,16.09,8.81,19.37A15.49,15.49,0,0,0,215.22,291.57Z" fill="#396caa"/><path d="M218.12,164.9l-6.21-3.58a2.57,2.57,0,0,1-1.07-2h0c0-.78.45-1.13,1-.8l6.21,3.58a2.57,2.57,0,0,1,1.07,2h0C219.15,164.88,218.69,165.24,218.12,164.9Z" fill="#5793ce"/><path d="M231.3,172.51l-9.15-5.28a2.54,2.54,0,0,1-1.07-2h0c0-.78.44-1.14,1-.8l9.15,5.28a2.54,2.54,0,0,1,1.07,2h0C232.33,172.49,231.87,172.85,231.3,172.51Z" fill="#5793ce"/><path d="M217.41,141.24l-11.84-6.84a2.53,2.53,0,0,1-1.07-2h0c0-.77.44-1.13,1-.8l11.85,6.84a2.58,2.58,0,0,1,1.06,2h0C218.45,141.22,218,141.58,217.41,141.24Z" fill="#5793ce"/><path d="M209.63,148.38l-3.87-2.24a2.54,2.54,0,0,1-1.07-2h0c0-.78.45-1.13,1-.8l3.88,2.24a2.56,2.56,0,0,1,1.06,2h0C210.67,148.35,210.21,148.71,209.63,148.38Z" fill="#5793ce"/><path d="M208.44,159.31,206,157.88a2.56,2.56,0,0,1-1.07-2h0c0-.77.45-1.13,1-.79l2.49,1.43a2.57,2.57,0,0,1,1.07,2h0C209.47,159.29,209,159.65,208.44,159.31Z" fill="#5793ce"/><path d="M224.06,156.71l-10.36-6a2.58,2.58,0,0,1-1.06-2h0c0-.77.44-1.13,1-.79l10.35,6a2.54,2.54,0,0,1,1.07,2h0C225.09,156.68,224.63,157,224.06,156.71Z" fill="#5793ce"/><path d="M223.71,150.69l-18.05-10.42a2.56,2.56,0,0,1-1.06-2h0c0-.77.44-1.13,1-.8l18,10.42a2.58,2.58,0,0,1,1.06,2h0C224.75,150.67,224.29,151,223.71,150.69Z" fill="#5793ce"/><path d="M216.21,158l-10.36-6a2.56,2.56,0,0,1-1.06-2h0c0-.78.44-1.14,1-.8l10.35,6a2.54,2.54,0,0,1,1.07,2h0C217.24,158,216.78,158.32,216.21,158Z" fill="#5793ce"/><path d="M231.91,161.24l-3.76-2.17a2.56,2.56,0,0,1-1.06-2h0c0-.78.44-1.13,1-.8l3.76,2.17a2.56,2.56,0,0,1,1.06,2h0C233,161.22,232.49,161.57,231.91,161.24Z" fill="#5793ce"/><path d="M221.19,131.8l-6.2-3.58a2.56,2.56,0,0,1-1.07-2h0c0-.77.44-1.13,1-.79l6.21,3.58a2.56,2.56,0,0,1,1.06,2h0C222.23,131.78,221.77,132.13,221.19,131.8Z" fill="#5793ce"/><path d="M236,140.34l-9.15-5.29a2.54,2.54,0,0,1-1.07-2h0c0-.77.44-1.13,1-.8l9.15,5.29a2.54,2.54,0,0,1,1.07,2h0C237,140.31,236.56,140.67,236,140.34Z" fill="#5793ce"/><path d="M218.12,164.9l-6.21-3.58a2.57,2.57,0,0,1-1.07-2h0c0-.78.45-1.13,1-.8l6.21,3.58a2.57,2.57,0,0,1,1.07,2h0C219.15,164.88,218.69,165.24,218.12,164.9Z" fill="#5793ce"/><path d="M231.3,172.51l-9.15-5.28a2.54,2.54,0,0,1-1.07-2h0c0-.78.44-1.14,1-.8l9.15,5.28a2.54,2.54,0,0,1,1.07,2h0C232.33,172.49,231.87,172.85,231.3,172.51Z" fill="#5793ce"/><path d="M204.17,127.79l-3.88-2.24a2.56,2.56,0,0,1-1.06-2h0c0-.78.44-1.14,1-.8l3.88,2.24a2.55,2.55,0,0,1,1.06,2h0C205.2,127.76,204.75,128.12,204.17,127.79Z" fill="#5793ce"/><path d="M217.41,141.24l-11.84-6.84a2.53,2.53,0,0,1-1.07-2h0c0-.77.44-1.13,1-.8l11.85,6.84a2.58,2.58,0,0,1,1.06,2h0C218.45,141.22,218,141.58,217.41,141.24Z" fill="#5793ce"/><path d="M209.63,148.38l-3.87-2.24a2.54,2.54,0,0,1-1.07-2h0c0-.78.45-1.13,1-.8l3.88,2.24a2.56,2.56,0,0,1,1.06,2h0C210.67,148.35,210.21,148.71,209.63,148.38Z" fill="#5793ce"/><path d="M235.87,186.78l-10.35-6a2.54,2.54,0,0,1-1.07-2h0c0-.77.45-1.13,1-.8l10.36,6a2.54,2.54,0,0,1,1.06,2h0C236.91,186.76,236.45,187.11,235.87,186.78Z" fill="#5793ce"/><path d="M208.44,159.31,206,157.88a2.56,2.56,0,0,1-1.07-2h0c0-.77.45-1.13,1-.79l2.49,1.43a2.57,2.57,0,0,1,1.07,2h0C209.47,159.29,209,159.65,208.44,159.31Z" fill="#5793ce"/><path d="M209.23,171.4l-3.09-1.79a2.54,2.54,0,0,1-1.07-2h0c0-.77.45-1.13,1-.8l3.09,1.79a2.53,2.53,0,0,1,1.07,2h0C210.26,171.37,209.8,171.73,209.23,171.4Z" fill="#5793ce"/><path d="M221.25,178.34l-8.15-4.71a2.56,2.56,0,0,1-1.06-2h0c0-.77.44-1.13,1-.8l8.15,4.71a2.56,2.56,0,0,1,1.06,2h0C222.29,178.31,221.83,178.67,221.25,178.34Z" fill="#5793ce"/><path d="M212.09,178.86l-5.86-3.38a2.56,2.56,0,0,1-1.06-2h0c0-.78.44-1.13,1-.8l5.86,3.38a2.56,2.56,0,0,1,1.06,2h0C213.12,178.84,212.67,179.19,212.09,178.86Z" fill="#5793ce"/><path d="M224.06,156.71l-10.36-6a2.58,2.58,0,0,1-1.06-2h0c0-.77.44-1.13,1-.79l10.35,6a2.54,2.54,0,0,1,1.07,2h0C225.09,156.68,224.63,157,224.06,156.71Z" fill="#5793ce"/><path d="M223.71,150.69l-18.05-10.42a2.56,2.56,0,0,1-1.06-2h0c0-.77.44-1.13,1-.8l18,10.42a2.58,2.58,0,0,1,1.06,2h0C224.75,150.67,224.29,151,223.71,150.69Z" fill="#5793ce"/><path d="M216.21,158l-10.36-6a2.56,2.56,0,0,1-1.06-2h0c0-.78.44-1.14,1-.8l10.35,6a2.54,2.54,0,0,1,1.07,2h0C217.24,158,216.78,158.32,216.21,158Z" fill="#5793ce"/><path d="M231.91,161.24l-3.76-2.17a2.56,2.56,0,0,1-1.06-2h0c0-.78.44-1.13,1-.8l3.76,2.17a2.56,2.56,0,0,1,1.06,2h0C233,161.22,232.49,161.57,231.91,161.24Z" fill="#5793ce"/><path d="M218.49,170.93,206,163.74a2.56,2.56,0,0,1-1.06-2h0c0-.77.44-1.13,1-.8l12.45,7.19a2.56,2.56,0,0,1,1.06,2h0C219.52,170.91,219.07,171.26,218.49,170.93Z" fill="#5793ce"/><path d="M209.35,125l-9.15-5.28a2.57,2.57,0,0,1-1.07-2h0c0-.78.45-1.13,1-.8l9.16,5.28a2.58,2.58,0,0,1,1.06,2h0C210.39,124.94,209.93,125.3,209.35,125Z" fill="#5793ce"/><path d="M211.75,184.48l-10.6-6.12a2.57,2.57,0,0,1-1.07-2h0c0-.78.45-1.13,1-.8l10.61,6.12a2.56,2.56,0,0,1,1.06,2h0C212.78,184.45,212.33,184.81,211.75,184.48Z" fill="#5793ce"/><path d="M216.66,220.59,210.45,217a2.54,2.54,0,0,1-1.06-2h0c0-.77.44-1.13,1-.8l6.2,3.59a2.54,2.54,0,0,1,1.07,2h0C217.69,220.56,217.23,220.92,216.66,220.59Z" fill="#5793ce"/><path d="M229.84,228.2l-9.15-5.29a2.54,2.54,0,0,1-1.07-2h0c0-.77.44-1.13,1-.8l9.15,5.29a2.54,2.54,0,0,1,1.07,2h0C230.87,228.17,230.41,228.53,229.84,228.2Z" fill="#5793ce"/><path d="M216,196.93l-11.85-6.84a2.54,2.54,0,0,1-1.07-2h0c0-.78.45-1.13,1-.8l11.85,6.84a2.57,2.57,0,0,1,1.07,2h0C217,196.9,216.53,197.26,216,196.93Z" fill="#5793ce"/><path d="M208.18,204.06l-3.88-2.24a2.53,2.53,0,0,1-1.07-2h0c0-.77.45-1.13,1-.8l3.88,2.24a2.59,2.59,0,0,1,1.07,2h0C209.21,204,208.75,204.4,208.18,204.06Z" fill="#5793ce"/><path d="M207,215l-2.49-1.44a2.54,2.54,0,0,1-1.07-2h0c0-.78.45-1.13,1-.8l2.49,1.44a2.57,2.57,0,0,1,1.07,2h0C208,215,207.55,215.33,207,215Z" fill="#5793ce"/><path d="M222.6,212.39l-10.36-6a2.56,2.56,0,0,1-1.06-2h0c0-.77.44-1.13,1-.8l10.35,6a2.54,2.54,0,0,1,1.07,2h0C223.63,212.37,223.18,212.72,222.6,212.39Z" fill="#5793ce"/><path d="M222.25,206.38,204.2,196a2.58,2.58,0,0,1-1.06-2h0c0-.77.44-1.13,1-.79l18.05,10.42a2.56,2.56,0,0,1,1.06,2h0C223.29,206.35,222.83,206.71,222.25,206.38Z" fill="#5793ce"/><path d="M214.75,213.67l-10.36-6a2.56,2.56,0,0,1-1.06-2h0c0-.77.44-1.13,1-.8l10.35,6a2.54,2.54,0,0,1,1.07,2h0C215.78,213.65,215.33,214,214.75,213.67Z" fill="#5793ce"/><path d="M230.46,216.93l-3.77-2.18a2.55,2.55,0,0,1-1.06-2h0c0-.77.44-1.13,1-.8l3.76,2.18a2.57,2.57,0,0,1,1.07,2h0C231.49,216.9,231,217.26,230.46,216.93Z" fill="#5793ce"/><path d="M98.48,283.79s-3.55-1.79-5.73.87-5.3,9-5.39,13.21,3.36,4,5.42,3,8.06-9.72,8.43-11.43-.43-4-1-4.47S98.48,283.79,98.48,283.79Z" fill="#5793ce"/><path d="M99.25,282.93l.16,3.68a2.06,2.06,0,0,1-1,1.91,4.15,4.15,0,0,1-2.74.43c-2.68-.43-2.91-1.2-3.11-4.87S99.25,282.93,99.25,282.93Z" fill="#d4ecff"/><path d="M85.49,276.72s-3.55-1.79-5.73.87-5.3,9-5.39,13.21,3.36,4,5.42,3,8.06-9.72,8.43-11.43-.43-4-1-4.47S85.49,276.72,85.49,276.72Z" fill="#5793ce"/><path d="M86.26,275.86l.16,3.68a2.05,2.05,0,0,1-1,1.91,4.12,4.12,0,0,1-2.73.43c-2.68-.43-2.91-1.19-3.11-4.87S86.26,275.86,86.26,275.86Z" fill="#d4ecff"/><path d="M117.93,208.36c-1.05-17.09-18.51,2.52-18.51,2.52l-12,11.71L76.71,234.41A10.59,10.59,0,0,0,74,242.93l4.35,33.14a3.25,3.25,0,0,0,3.27,2.83,11.31,11.31,0,0,0,1.61-.14,4,4,0,0,0,3.59-4.3l-.79-31,22.59-13.63S119,225.45,117.93,208.36Z" fill="#173d7a"/><path d="M130.92,214.87c-1-17.09-18.51,2.52-18.51,2.52l-12,11.71L89.7,240.92A10.59,10.59,0,0,0,87,249.44l4.35,33.14a3.25,3.25,0,0,0,3.27,2.83,10,10,0,0,0,1.61-.14,4,4,0,0,0,3.59-4.3l-.79-31,22.59-13.62S132,232,130.92,214.87Z" fill="#173d7a"/><path d="M120.59,160c13.23,5.49,13,13.31,13,13.31S131,202,131.85,221.16c.37,8-42.55,8.62-36.15-12.74,7.55-25.19,4.72-45.58,8.25-48.66S117.16,158.59,120.59,160Z" fill="#5793ce"/><path d="M124.85,167c-.7,2.69-4.22,4.1-7.87,3.16s-6-3.88-5.36-6.57,4.22-4.1,7.87-3.16S125.54,164.26,124.85,167Z" fill="#ffc2b0"/><path d="M119.22,171a10,10,0,0,1-2.4-.3,8.83,8.83,0,0,1-4.64-2.85,5.07,5.07,0,0,1-1.17-4.49c.78-3,4.65-4.65,8.64-3.62a8.88,8.88,0,0,1,4.64,2.84,5.06,5.06,0,0,1,1.17,4.5h0C124.84,169.51,122.25,171,119.22,171Zm-2-10.31c-2.45,0-4.51,1.15-5,3a3.81,3.81,0,0,0,.92,3.38,7.52,7.52,0,0,0,4,2.42c3.3.85,6.49-.36,7.09-2.71h0a3.81,3.81,0,0,0-.92-3.38,7.59,7.59,0,0,0-4-2.42A8.72,8.72,0,0,0,117.22,160.72Z" fill="#fff"/><path d="M115.28,159.42a31.29,31.29,0,0,1-.11,4.72c-.08,1.32,4.54,2.55,5.73,1.36s.72-2.44,1-6.92S115.28,159.42,115.28,159.42Z" fill="#ffc2b0"/><path d="M121.91,158.58s-1.14,4.16-6.74,5.75l.08-3.78Z" fill="#ea9c92"/><circle cx="115.59" cy="150.56" r="10.19" transform="translate(-72.65 174.87) rotate(-59.84)" fill="#ffc2b0"/><path d="M117.93,150.93s-5.61,2.4-9.49,2.43-3-3.23-3-3.23l11.53-1.66Z" fill="#ea9c92"/><path d="M107.28,151.56s4.89-2.07,9.18-1.21a4.54,4.54,0,0,1,2.59,1.54,1.54,1.54,0,0,0,.78.57c.76.17,2-3,3.48-3.05s2.47,1,1.25,2.91-.8,4.11-.24,4.42,6.47-4.22,1.25-14.55-18.46-4.76-20.52-2.67c0,0-2.17,1.89-3.93.21C101.12,139.73,99.14,154.55,107.28,151.56Z" fill="#ff2c9c"/><path d="M126.13,194.28V202a3.12,3.12,0,0,1-1,2.33l-15.92,14.52,1.81,2.77,21-15.25a4.29,4.29,0,0,0,1.74-3l1.42-13.51Z" fill="#ffc2b0"/><path d="M132.44,169.45s4.83,7.26,6.63,26.38c0,0-8.25,2.67-12.94,1.16S132.44,169.45,132.44,169.45Z" fill="#5793ce"/><path d="M125.25,178.63s-1.89,10.12-2,14.88a3,3,0,0,0,2,2.93h0Z" fill="#396caa"/><path d="M121.12,229l-3.52-.47L94.89,215.38a3.16,3.16,0,0,0-2.85.12L76,224.79l-2.13-.29v2.12h0a.85.85,0,0,0,.49.75l25.74,14.86a3.16,3.16,0,0,0,2.85-.12L120.43,232a1.17,1.17,0,0,0,.69-1h0Z" fill="#5793ce"/><path d="M104.05,220.67l-1.61-.93H84.7l-8.75,5-2.13-.29v2.12h0a.85.85,0,0,0,.49.75l25.74,14.86a2.77,2.77,0,0,0,1.47.28Z" fill="#396caa"/><path d="M74.76,224.63l-.94-.13v2.12h0a.85.85,0,0,0,.49.75l.45.26Z" fill="#5793ce"/><path d="M100.31,242.35a3.3,3.3,0,0,0,2.42-.15v-3.6h-2.42Z" fill="#fff"/><path d="M100.05,240.12,74.31,225.25c-.73-.42-.64-1.15.2-1.64L92,213.49a3.19,3.19,0,0,1,2.85-.11l25.74,14.86c.73.42.64,1.15-.2,1.64L102.9,240A3.2,3.2,0,0,1,100.05,240.12Z" fill="#fff"/><path d="M99.62,237.86,78.21,225.5c-.6-.35-.53-1,.17-1.36l9.4-5.28a2.6,2.6,0,0,1,2.36-.1l21.4,12.36c.61.35.53,1-.16,1.36l-9.4,5.28A2.6,2.6,0,0,1,99.62,237.86Z" fill="#d4ecff"/><path d="M93,213l-.27,1.77a13.43,13.43,0,0,0,.12,4.56l.32,1.56A2.18,2.18,0,0,0,95,222.63h0a1.2,1.2,0,0,0,1.42-1.06l.43-3.8s1,1.28,1.44,1.28-.53-3.8-1.59-6S93,213,93,213Z" fill="#ffc2b0"/><path d="M101.77,184.78,99,190.24a11,11,0,0,0-1.13,4.15l-1.2,18.7L93,213l-1.65-21a8,8,0,0,1,.09-1.95l1.89-10.64Z" fill="#ffc2b0"/><path d="M99.18,241.54,97,238.73l-22.7-13.15A3.18,3.18,0,0,1,73,223.06l0-18.58-1.31-1.71,1.23-.71h0a.83.83,0,0,1,.89.06L99.57,217a3.18,3.18,0,0,1,1.31,2.52l0,20.24a1.15,1.15,0,0,1-.48,1.08h0Z" fill="#173d7a"/><path d="M83.48,230.89,81.87,230,73,214.58v-10.1l-1.31-1.71,1.23-.71h0a.83.83,0,0,1,.89.06L99.57,217a2.67,2.67,0,0,1,1,1.13Z" fill="#396caa"/><path d="M72.3,203.53l-.58-.76,1.23-.71h0a.83.83,0,0,1,.89.06l.45.26Z" fill="#5793ce"/><path d="M99.8,217.17a3.32,3.32,0,0,1,1.07,2.17l-2.51,1.45-1.2-2.09Z" fill="#274f89"/><path d="M98.34,217.72l-25.72-14.9c-.73-.42-1.32,0-1.32,1l0,20.24a3.16,3.16,0,0,0,1.32,2.52l25.73,14.9c.72.42,1.31,0,1.32-1l0-20.24A3.16,3.16,0,0,0,98.34,217.72Z" fill="#5793ce"/><path d="M111,221.65l-.41.85a5.75,5.75,0,0,1-2.15,2.38l-2.56,1.58a2.55,2.55,0,0,1-2.61.06l-.08-.05a1.54,1.54,0,0,1-.22-2.37l2.67-2.74s-1.5,1.15-1.92.69,1.45-2,2.81-2.05a5.39,5.39,0,0,0,2.66-1.12Z" fill="#ffc2b0"/><path d="M104.22,159.72s-9.79,10.65-13.74,20.42a20,20,0,0,0,11.54,8.4C110.22,190.91,104.22,159.72,104.22,159.72Z" fill="#5793ce"/><path d="M100.18,187.91l1.59-15.33L98,186.94A21.39,21.39,0,0,0,100.18,187.91Z" fill="#396caa"/><path d="M111.55,157.57l-2.63-.72a6.41,6.41,0,0,0,3.09,2.48c1.83.5,2.12-1.05,2.12-1.05Z" fill="#fff"/><path d="M125.6,153.36a1.47,1.47,0,0,1-2.93,0,1.47,1.47,0,1,1,2.93,0Z" fill="#fff"/><path d="M344.3,159l-4.42-9,9-4.41,4.41,9Zm-1.74-8.06,2.65,5.38,5.38-2.65-2.65-5.38Z" fill="#ff2c9c"/><path d="M75.38,119.69a6.5,6.5,0,1,1,6.5-6.5A6.51,6.51,0,0,1,75.38,119.69Zm0-11a4.5,4.5,0,1,0,4.5,4.5A4.51,4.51,0,0,0,75.38,108.69Z" fill="#5793ce"/><path d="M59.59,322.72A4.72,4.72,0,1,1,54.87,318,4.72,4.72,0,0,1,59.59,322.72Z" fill="#d4ecff"/><path d="M300.79,52.74a5.62,5.62,0,1,1-5.62-5.62A5.61,5.61,0,0,1,300.79,52.74Z" fill="#d4ecff"/><path d="M270.39,110.9,243.65,95.46a1.37,1.37,0,0,0-1.38-.11v0l-2.59,1.5,1.82.67V117a5.16,5.16,0,0,0,2.15,4.11l25.56,14.76v2.28l2.62-1.51h0a1.92,1.92,0,0,0,.72-1.72V115A5.16,5.16,0,0,0,270.39,110.9Z" fill="#d3008d"/><path d="M267.75,138,241,122.6a5.13,5.13,0,0,1-2.15-4.11V98.61c0-1.58,1-2.31,2.15-1.63l26.74,15.44a5.16,5.16,0,0,1,2.15,4.11v19.88C269.9,138,268.94,138.73,267.75,138Z" fill="#ff2c9c"/><path d="M250,115.75c0,1.15-.8,1.62-1.8,1a4,4,0,0,1-1.8-3.12c0-1.15.8-1.62,1.8-1A4,4,0,0,1,250,115.75Z" fill="#fff"/><path d="M255.47,118.91c0,1.15-.81,1.61-1.8,1a4,4,0,0,1-1.81-3.13c0-1.15.81-1.61,1.81-1A4,4,0,0,1,255.47,118.91Z" fill="#fff"/><path d="M260.93,122.06c0,1.15-.8,1.62-1.8,1a4,4,0,0,1-1.8-3.12c0-1.15.8-1.62,1.8-1A4,4,0,0,1,260.93,122.06Z" fill="#fff"/><path d="M162,125.73,135.8,110.59a1.34,1.34,0,0,0-1.35-.11v0l-2.55,1.47,1.79.66v19.1a5.07,5.07,0,0,0,2.11,4l25.08,14.48v2.24l2.57-1.48h0a1.84,1.84,0,0,0,.72-1.68v-19.5A5.07,5.07,0,0,0,162,125.73Z" fill="#5793ce"/><path d="M159.44,152.36l-26.23-15.14a5.09,5.09,0,0,1-2.11-4v-19.5c0-1.56,1-2.27,2.11-1.6l26.23,15.15a5,5,0,0,1,2.11,4v19.51C161.55,152.32,160.61,153,159.44,152.36Z" fill="#d4ecff"/><path d="M142,130.49c0,1.13-.79,1.59-1.77,1a4,4,0,0,1-1.77-3.07c0-1.13.8-1.58,1.77-1A3.9,3.9,0,0,1,142,130.49Z" fill="#fff"/><path d="M147.4,133.59c0,1.13-.8,1.59-1.77,1a3.89,3.89,0,0,1-1.77-3.06c0-1.13.79-1.59,1.77-1A3.91,3.91,0,0,1,147.4,133.59Z" fill="#fff"/><path d="M152.76,136.69c0,1.12-.8,1.58-1.77,1a3.92,3.92,0,0,1-1.77-3.07c0-1.13.79-1.58,1.77-1A3.93,3.93,0,0,1,152.76,136.69Z" fill="#fff"/><polygon points="175.08 343 189.68 334.57 175.08 326.14 160.47 334.57 160.47 334.57 145.86 343 160.47 351.44 160.47 351.44 175.08 359.87 189.68 351.44 175.08 343 175.08 343" fill="#d3008d" opacity="0.6"/><polygon points="175.08 334 175.08 272.16 189.68 263.72 189.68 325.56 175.08 334" fill="#173d7a"/><polygon points="175.08 272.16 160.47 263.72 160.47 325.56 175.08 334 175.08 272.16" fill="#396caa"/><polygon points="189.68 263.72 175.08 255.29 160.47 263.72 175.08 272.16 189.68 263.72" fill="#d4ecff"/><polygon points="189.68 336.81 175.08 328.38 175.08 334 189.68 342.43 189.68 336.81" fill="#95d359"/><polygon points="160.47 342.43 160.47 297.45 175.08 289.02 175.08 334 160.47 342.43" fill="#c13d1a"/><polygon points="160.47 297.45 145.86 289.02 145.86 334 160.47 342.43 160.47 297.45" fill="#db5126"/><polygon points="175.08 289.02 160.47 280.59 145.86 289.02 160.47 297.45 175.08 289.02" fill="#ef602e"/><polygon points="160.47 342.43 160.47 297.45 175.08 289.02 175.08 334 160.47 342.43" fill="#396caa"/><polygon points="160.47 297.45 145.86 289.02 145.86 334 160.47 342.43 160.47 297.45" fill="#5793ce"/><polygon points="175.08 289.02 160.47 280.59 145.86 289.02 160.47 297.45 175.08 289.02" fill="#d4ecff"/><polygon points="175.08 350.86 175.08 325.56 189.68 317.13 189.68 342.43 175.08 350.86" fill="#173d7a"/><polygon points="175.08 325.56 160.47 317.13 160.47 342.43 175.08 350.86 175.08 325.56" fill="#396caa"/><polygon points="189.68 317.13 175.08 308.7 160.47 317.13 175.08 325.56 189.68 317.13" fill="#d4ecff"/></svg>