<svg id="_ÎÓÈ_1" data-name="—ÎÓÈ_1" xmlns="http://www.w3.org/2000/svg" xmlns:xlink="http://www.w3.org/1999/xlink" viewBox="0 0 400 400"><defs><linearGradient id="linear-gradient" x1="200" y1="376.81" x2="200" gradientUnits="userSpaceOnUse"><stop offset="0" stop-color="#ff99cf"/><stop offset="0.94" stop-color="#d3008d"/></linearGradient><linearGradient id="linear-gradient-2" y1="329.54" x2="399.99" y2="329.54" gradientUnits="userSpaceOnUse"><stop offset="0.43" stop-color="#d3008d"/><stop offset="0.53" stop-color="#ff99cf"/></linearGradient></defs><path d="M400,0V269.42L232.42,366.16l-6.33,3.65a52.16,52.16,0,0,1-52.18,0l-6.14-3.55L0,269.42V0Z" fill="url(#linear-gradient)"/><path d="M232.42,366.16l-6.33,3.65a52.16,52.16,0,0,1-52.18,0l-6.14-3.55L0,269.42v12.85l167.77,96.85,6.14,3.54a52.19,52.19,0,0,0,52.18,0l6.33-3.66L400,282.27V269.42Z" fill="url(#linear-gradient-2)"/><polygon points="362.42 229.16 351.03 222.58 362.42 216.01 373.8 222.58 362.42 229.16" fill="#d3008d" opacity="0.6"/><polygon points="373.81 215.13 362.42 221.7 362.42 208.55 373.81 201.97 373.81 215.13" fill="#d3008d"/><polygon points="362.42 208.55 351.03 201.97 362.42 195.4 373.8 201.97 362.42 208.55" fill="#ff2c9c"/><polygon points="362.42 221.7 351.03 215.13 351.03 201.97 362.42 208.55 362.42 221.7" fill="#ff2c9c"/><polygon points="185.92 124.23 174.53 117.66 185.92 111.08 197.31 117.66 185.92 124.23" fill="#efefef"/><polygon points="197.31 110.2 185.92 116.77 185.92 103.62 197.31 97.05 197.31 110.2" fill="#173d7a"/><polygon points="185.92 103.62 174.53 97.05 185.92 90.47 197.31 97.05 185.92 103.62" fill="#d4ecff"/><polygon points="185.92 116.77 174.53 110.2 174.53 97.05 185.92 103.62 185.92 116.77" fill="#5793ce"/><path d="M310.43,293.88l-141.34-81.6L78.23,286.05l-3.77,2a2.37,2.37,0,0,0-.08,4.15l120.09,69.34a10.16,10.16,0,0,0,10.12,0l105.84-61.11A3.77,3.77,0,0,0,310.43,293.88Z" fill="#d3008d" opacity="0.6"/><path d="M189.64,199c0-7.16-5-10.08-11.23-6.51L73,253.2a6.82,6.82,0,0,0-3.09,5.34c0,2,1.38,2.76,3.09,1.78L178.4,199.58c2.8-1.61,5.07-.3,5.07,2.93V214.3c2-.12,4.1-.13,6.17-.09Z" fill="#ff2c9c"/><path d="M72.94,281.52l105.42-38.41c6.2-3.58,11.26-12.31,11.26-19.47v-9.43c-2.07,0-4.13,0-6.17.09v12.9a11.24,11.24,0,0,1-5.08,8.78L72.94,274.4a6.85,6.85,0,0,0-3.09,5.34C69.85,281.71,71.23,282.5,72.94,281.52Z" fill="#d3008d"/><polygon points="70.65 281.66 198.9 355.87 307.47 291.12 316.09 278.26 315.19 282.82 312.88 270.89 111.33 278.58 75.82 276.29 70.65 281.66" fill="#d3008d"/><polygon points="74.91 259.27 74.87 275.06 198.82 346.76 202.16 331.72 74.91 259.27" fill="#e573b5"/><polygon points="314.49 265.82 186.45 191.74 71.01 258.87 70.77 260.52 199 334.71 314.49 265.82" fill="#ff2c9c"/><path d="M273.67,303.86,303.78,286a11.32,11.32,0,0,0,4.52-8.4l0-2.36c0-1.91-.8-3.15-2-3.51L247,304.7l-48.26,26.1,0,16Z" fill="#fff"/><path d="M203.1,332.26,75.87,258.65l-2.69-1.56-2.47-1.42a6.23,6.23,0,0,0-.82,2.87,2.2,2.2,0,0,0,.88,2h0L199,334.71Z" fill="#d3008d"/><polygon points="197.3 354.95 198.9 355.87 199.19 355.36 198.19 354.58 197.3 354.95" fill="#fff"/><polygon points="197.34 333.74 198.98 334.69 198.57 333.8 197.34 333.74" fill="#fff"/><path d="M201.21,327.38l105.42-60.74c6.21-3.57,11.25-.66,11.24,6.5l0,2.37c0,7.15-5.06,15.88-11.26,19.46L201.17,355.71c-1.71,1-3.09.18-3.09-1.79a6.83,6.83,0,0,1,3.09-5.34L306.6,287.84a11.23,11.23,0,0,0,5.07-8.78l0-2.36c0-3.23-2.27-4.54-5.07-2.93L201.2,334.51c-1.7,1-3.08.18-3.08-1.79A6.83,6.83,0,0,1,201.21,327.38Z" fill="#ff2c9c"/><polygon points="154.26 268.49 209.04 236.93 256.55 264.42 201.77 295.98 154.26 268.49" fill="#fff"/><path d="M198.08,353.92a6.83,6.83,0,0,1,3.09-5.34L306.6,287.84a11.23,11.23,0,0,0,5.07-8.78l0-2.36c0-2.12-1-3.4-2.44-3.59a4.26,4.26,0,0,1,.75,2.61l0,2.37a11.22,11.22,0,0,1-5.07,8.77L199.48,347.6a6.85,6.85,0,0,0-3.09,5.35c0,1.49.79,2.3,1.92,2.18A2.9,2.9,0,0,1,198.08,353.92Z" fill="#fff"/><path d="M198.12,332.72a6.83,6.83,0,0,1,3.09-5.34l105.42-60.74c2.68-1.54,5.13-1.87,7.06-1.18-2.06-1.76-5.21-1.83-8.74.2L199.52,326.4a6.85,6.85,0,0,0-3.09,5.35c0,1.49.79,2.3,1.92,2.18A2.9,2.9,0,0,1,198.12,332.72Z" fill="#fff"/><path d="M189.64,163.75c0-7.16-5-10.07-11.23-6.5L73,218a6.83,6.83,0,0,0-3.09,5.34c0,2,1.38,2.77,3.09,1.79L178.4,164.38c2.8-1.61,5.07-.3,5.07,2.93V179.1c2-.13,4.1-.13,6.17-.09Z" fill="#d4ecff"/><path d="M72.94,246.32,178.36,207.9c6.2-3.57,11.26-12.3,11.26-19.46V179c-2.07,0-4.13,0-6.17.09V192a11.25,11.25,0,0,1-5.08,8.78L72.94,239.19a6.86,6.86,0,0,0-3.09,5.34C69.85,246.5,71.23,247.3,72.94,246.32Z" fill="#5793ce"/><polygon points="70.65 246.46 198.9 320.67 307.47 255.91 316.09 243.06 315.19 247.61 312.88 235.69 111.33 243.38 75.82 241.09 70.65 246.46" fill="#5793ce"/><polygon points="74.91 224.06 74.87 239.85 198.82 311.56 202.16 296.51 74.91 224.06" fill="#86b8e0"/><polygon points="314.49 230.61 186.45 156.53 71.01 223.67 70.77 225.32 199 299.5 314.49 230.61" fill="#d4ecff"/><path d="M273.67,268.65l30.11-17.86a11.3,11.3,0,0,0,4.52-8.39l0-2.37c0-1.91-.8-3.14-2-3.5L247,269.5l-48.26,26.1,0,16Z" fill="#fff"/><path d="M203.1,297.06,75.87,223.45l-2.69-1.56-2.47-1.43a6.29,6.29,0,0,0-.82,2.87,2.19,2.19,0,0,0,.88,2h0L199,299.5Z" fill="#5793ce"/><polygon points="197.3 319.74 198.9 320.67 199.19 320.16 198.19 319.37 197.3 319.74" fill="#fff"/><polygon points="197.34 298.54 198.98 299.49 198.57 298.59 197.34 298.54" fill="#fff"/><path d="M201.21,292.18l105.42-60.74c6.21-3.58,11.25-.66,11.24,6.5l0,2.36c0,7.16-5.06,15.89-11.26,19.46L201.17,320.5c-1.71,1-3.09.19-3.09-1.78a6.82,6.82,0,0,1,3.09-5.34L306.6,252.64a11.24,11.24,0,0,0,5.07-8.78l0-2.37c0-3.22-2.27-4.54-5.07-2.93L201.2,299.3c-1.7,1-3.08.19-3.08-1.78A6.82,6.82,0,0,1,201.21,292.18Z" fill="#d4ecff"/><path d="M198.08,318.72a6.82,6.82,0,0,1,3.09-5.34L306.6,252.64a11.24,11.24,0,0,0,5.07-8.78l0-2.37c0-2.11-1-3.4-2.44-3.58a4.22,4.22,0,0,1,.75,2.61l0,2.36a11.23,11.23,0,0,1-5.07,8.78L199.48,312.4a6.82,6.82,0,0,0-3.09,5.34c0,1.49.79,2.31,1.92,2.19A2.9,2.9,0,0,1,198.08,318.72Z" fill="#fff"/><path d="M198.12,297.52a6.82,6.82,0,0,1,3.09-5.34l105.42-60.74c2.68-1.54,5.13-1.87,7.06-1.18-2.06-1.76-5.21-1.84-8.74.2L199.52,291.2a6.82,6.82,0,0,0-3.09,5.34c0,1.49.79,2.31,1.92,2.19A2.9,2.9,0,0,1,198.12,297.52Z" fill="#fff"/><path d="M273.76,219.18l-31.64-18.27-14.87,8.58a3.39,3.39,0,0,0-1.43-1.44,8.6,8.6,0,0,0-7.78,0c-2.15,1.24-2.15,3.25,0,4.49a7.16,7.16,0,0,0,2.5.83L205.67,222,221,230.79a2.85,2.85,0,0,1,1.6-2c2.14-1.24,3.19-1.48,5.34-.24s2.64,2.55.49,3.79c-1,.57-.3,1.81-1.59,1.86l15.3,8.84,31.64-18.27C276.42,223.2,276.42,220.71,273.76,219.18Z" fill="#abd6f4"/><path d="M156.2,231a7.24,7.24,0,0,0-2.44-.81l14.84-8.58L154,213.15a3.8,3.8,0,0,1-1.08.9,8.62,8.62,0,0,1-7.79,0c-2.14-1.24-2.14-3.25,0-4.49a6.53,6.53,0,0,1,1.56-.63l-14.57-8.41-31.63,18.27c-2.66,1.53-2.66,4,0,5.55l31.63,18.27L147,234a3.42,3.42,0,0,0,1.42,1.41,8.6,8.6,0,0,0,7.78,0C158.35,234.21,158.35,232.19,156.2,231Z" fill="#abd6f4"/><path d="M208.45,245.79a7.81,7.81,0,0,0,3.54-.92c2.15-1.24,2.15-3.25,0-4.49a8.6,8.6,0,0,0-7.78,0,2.85,2.85,0,0,0-1.6,2l-15.3-8.84-14.85,8.58a7.24,7.24,0,0,1,2.44.81c2.15,1.24,2.15,3.25,0,4.49a8.54,8.54,0,0,1-7.78,0,3.41,3.41,0,0,1-1.42-1.4l-14.84,8.57,31.63,18.26a10.61,10.61,0,0,0,9.63,0l31.64-18.26Z" fill="#abd6f4"/><path d="M276.73,154.06l-34.31-19.81-18,10.4a4,4,0,0,0-1.73-1.75,8.94,8.94,0,0,0-3.18-1,35.54,35.54,0,0,0-2.72-3.13l-5.47-1.58v8.41a3.28,3.28,0,0,0,1.95,2.76,8.28,8.28,0,0,0,3,1l-9.06,5.23-8.95-3.2V205l18.54,10.7a3.47,3.47,0,0,1,1.93-2.48,9.86,9.86,0,0,1,5.14-1.11v7.67l18.54,10.71,38.32-22.13c1.65-.95,2.45-2.2,2.41-3.45h0V151.45Z" fill="#396caa"/><path d="M242.42,134.25l-.13.08v96l.13.08,38.32-22.13c1.65-.95,2.45-2.2,2.41-3.45h0V151.45l-6.42,2.61Z" fill="#173d7a"/><polygon points="223.88 168.58 223.88 166.15 225.98 167.37 223.88 168.58" fill="#396caa"/><path d="M216.81,155.56v60.09a3.47,3.47,0,0,1,1.93-2.48,10.44,10.44,0,0,1,9.43,0,4.85,4.85,0,0,1,1.31,1.08,17.38,17.38,0,0,1,4.33-.75V155.56Z" fill="#173d7a"/><polygon points="234.29 225.74 234.31 173.29 223.88 167.28 223.88 181.99 223.88 219.73 234.29 225.74" fill="#396caa"/><path d="M283.09,151.93a4.45,4.45,0,0,1-2.35,2.8l-38.32,22.13-16.16-9.33c0-.26-.09-.77-.09-.77l-2.29-.61v1.13L242.42,178l38.32-22.12C282.6,154.78,283.38,153.33,283.09,151.93Z" fill="#fff"/><polygon points="211.31 138.41 211.31 137.27 212.22 137.56 211.31 138.41" fill="#fff"/><path d="M280.74,148l-38.32-22.12-18,10.4a4,4,0,0,0-1.73-1.75,10.42,10.42,0,0,0-9.42,0c-2.61,1.5-2.61,3.94,0,5.44a8.67,8.67,0,0,0,3,1l-18,10.4,18.54,10.7a3.45,3.45,0,0,1,1.94-2.47,10.36,10.36,0,0,1,9.42,0c2.6,1.5,2.6,3.94,0,5.44a9.31,9.31,0,0,1-4.29,1.11l18.54,10.71,38.32-22.13C284,152.88,284,149.86,280.74,148Z" fill="#d4ecff"/><path d="M213.26,141.09a7.47,7.47,0,0,0,1.63.69l1.39-.81a8.67,8.67,0,0,1-3-1,3.67,3.67,0,0,1-1.88-2.16C211.09,139,211.71,140.2,213.26,141.09Z" fill="#fff"/><path d="M230,162.88c.3-1.16-.32-2.39-1.87-3.28a10.36,10.36,0,0,0-9.42,0,3.45,3.45,0,0,0-1.94,2.47l-18.54-10.7v1.12l18.54,10.7a3.45,3.45,0,0,1,1.94-2.47,10.42,10.42,0,0,1,9.42,0A3.68,3.68,0,0,1,230,162.88Z" fill="#fff"/><path d="M176.17,203.73V151.54l-8.79,3.29-8.85-5.11a4.58,4.58,0,0,1-1.32,1.09,10.36,10.36,0,0,1-9.42,0c-2.55-1.46-2.6-3.82-.17-5.33l2,1.15V136.24H143.3l-.63,4.33L132,134.42,98.13,154l-6.84-2.45v52.19h0c0,1.22.81,2.44,2.42,3.37L132,229.22l18-10.38a4.09,4.09,0,0,0,1.71,1.7,10.38,10.38,0,0,0,9.43,0,3.24,3.24,0,0,0,1.94-2.83v-6.43Z" fill="#173d7a"/><path d="M132,134.42,98.13,154l-6.84-2.45v52.19h0c0,1.22.81,2.44,2.42,3.37L132,229.22v-94.8Z" fill="#396caa"/><path d="M148.15,136.28l-.22.57.06.05-.21.1c-1.54.89-2.16,2.12-1.87,3.28a3.68,3.68,0,0,1,1.87-2.16,8.58,8.58,0,0,1,1.89-.76v-1.12Z" fill="#fff"/><path d="M161.15,162.91a8.69,8.69,0,0,0-3-1l18-10.38-17.64-10.19a4.58,4.58,0,0,1-1.32,1.09,10.42,10.42,0,0,1-9.42,0c-2.61-1.5-2.61-3.94,0-5.44a7.71,7.71,0,0,1,1.89-.76L132,126.05,93.71,148.17c-3.22,1.86-3.22,4.88,0,6.74L132,177l18-10.38a4.09,4.09,0,0,0,1.71,1.7,10.38,10.38,0,0,0,9.43,0C163.75,166.85,163.75,164.42,161.15,162.91Z" fill="#5793ce"/><path d="M161.15,168.35a10.38,10.38,0,0,1-9.43,0,4.09,4.09,0,0,1-1.71-1.7L132,177,93.71,154.91a4.4,4.4,0,0,1-2.35-2.81c-.29,1.4.49,2.86,2.35,3.93L132,178.15l18-10.38a4.11,4.11,0,0,0,1.71,1.71,10.44,10.44,0,0,0,9.43,0c1.55-.9,2.17-2.12,1.87-3.29A3.65,3.65,0,0,1,161.15,168.35Z" fill="#fff"/><path d="M158.19,161.92a10.43,10.43,0,0,1,1.39.33l16.59-9.59v-1.12Z" fill="#fff"/><path d="M222.07,186.72,212.14,181a9.31,9.31,0,0,0,4.29-1.11,3.58,3.58,0,0,0,1.89-2.24l.06,0v-8.93L210,172l1.94,1.31a9.7,9.7,0,0,0-4.91,1.12,3.45,3.45,0,0,0-1.94,2.47l-18.54-10.7-10.89,6.29-1.13-3.78-6-.5v9.31l1.82-.47a7.91,7.91,0,0,1,1.14.52c2.6,1.5,2.6,3.94,0,5.44a10.38,10.38,0,0,1-9.43,0,4,4,0,0,1-1.71-1.7l-10,5.74-8-3.73V235l38.32,22.12a12.88,12.88,0,0,0,11.66,0L230.68,235V183.32Z" fill="#d3008d"/><path d="M171.51,169.2a7.32,7.32,0,0,0-1.34-.58l-.17-.32-1.45-.09v1.12a8.69,8.69,0,0,1,3,1,3.68,3.68,0,0,1,1.87,2.16C173.68,171.32,173.06,170.09,171.51,169.2Z" fill="#fff"/><path d="M186.53,178.15h-14.2c1.74,1.5,1.47,3.54-.82,4.86a10.38,10.38,0,0,1-9.43,0,4,4,0,0,1-1.71-1.7l-10,5.74-8-3.73V235l38.32,22.12a11.91,11.91,0,0,0,5.83,1.4Z" fill="#ff2c9c"/><path d="M212.14,172.61a9.44,9.44,0,0,0,4.29-1.11c2.6-1.51,2.6-3.94,0-5.45a10.42,10.42,0,0,0-9.42,0,3.46,3.46,0,0,0-1.94,2.48l-18.54-10.7-18,10.38a8.69,8.69,0,0,1,3,1c2.6,1.5,2.6,3.94,0,5.44a10.44,10.44,0,0,1-9.43,0,4,4,0,0,1-1.71-1.71l-18,10.39,38.32,22.12a12.88,12.88,0,0,0,11.66,0l38.32-22.12Z" fill="#ff2c9c"/><path d="M218.3,169.34a3.68,3.68,0,0,1-1.87,2.16,9.44,9.44,0,0,1-4.29,1.11l1.63.94a8.46,8.46,0,0,0,2.66-.93C218,171.72,218.6,170.5,218.3,169.34Z" fill="#fff"/><path d="M192.36,205.44a12.88,12.88,0,0,1-11.66,0l-38.32-22.12v1.12l38.32,22.12a12.88,12.88,0,0,0,11.66,0l38.32-22.12v-1.12Z" fill="#fff"/><polygon points="243.01 177.64 243.01 230.09 242.42 230.44 241.79 230.07 241.79 177.36 243.01 177.64" fill="#fff"/><path d="M185.92,258.46q.62,0,1.23,0v-51h-1.23Z" fill="#fff"/><polygon points="131.41 228.87 132.03 229.22 132.64 228.87 132.64 177.62 131.41 177.62 131.41 228.87" fill="#fff"/><path d="M255.78,214.46s3.11-3.44,6.61-1.46,9.53,7.53,11.42,12.12-2,5.73-4.66,5.5-12.87-7.2-14-8.91-1.22-4.55-.78-5.29S255.78,214.46,255.78,214.46Z" fill="#5793ce"/><path d="M255.89,212.23l-.19,4.29a2.44,2.44,0,0,0,1.21,2.23,4.79,4.79,0,0,0,3.2.5c3.12-.5,3.4-1.39,3.62-5.69S255.89,212.23,255.89,212.23Z" fill="#d4ecff"/><path d="M270.41,206s3.11-3.45,6.61-1.46,9.53,7.53,11.42,12.12-2,5.73-4.66,5.5-12.87-7.2-14-8.91-1.22-4.55-.78-5.29S270.41,206,270.41,206Z" fill="#5793ce"/><path d="M270.17,203.42l-.2,4.29a2.45,2.45,0,0,0,1.22,2.24,4.75,4.75,0,0,0,3.19.49c3.12-.5,3.4-1.39,3.63-5.68S270.17,203.42,270.17,203.42Z" fill="#d4ecff"/><path d="M234.09,125.16c1.22-20,21.61,2.93,21.61,2.93l13.95,13.68L281.32,155a12.39,12.39,0,0,1,3.12,9.94l-5.09,38.7a3.81,3.81,0,0,1-3.81,3.31,14,14,0,0,1-1.88-.17,4.74,4.74,0,0,1-4.2-5l.93-36.19L244.9,150.24S232.86,145.11,234.09,125.16Z" fill="#5793ce"/><path d="M218.92,132.76c1.22-19.95,21.61,2.94,21.61,2.94l13.95,13.67L267,163.17a12.34,12.34,0,0,1,3.12,10l-5.08,38.7a3.8,3.8,0,0,1-3.81,3.3,12.54,12.54,0,0,1-1.89-.16,4.72,4.72,0,0,1-4.19-5l.92-36.19-26.38-15.91S217.69,152.71,218.92,132.76Z" fill="#5793ce"/><path d="M231,68.71c-15.46,6.4-15.15,15.54-15.15,15.54s3,33.49,2,55.85c-.43,9.35,49.67,10.07,42.2-14.88-8.81-29.41-5.51-53.22-9.63-56.81S235,67.05,231,68.71Z" fill="#ff2c9c"/><ellipse cx="233.72" cy="74.82" rx="7.97" ry="5.87" transform="translate(-11.27 60.67) rotate(-14.44)" fill="#ffc2b0"/><path d="M232.19,80.57,235,83.65a1.89,1.89,0,0,1,.48,1.49l-2,16.9a1.87,1.87,0,0,0,.37,1.33l6.12,8a.55.55,0,0,0,1-.16l3.33-10.49a1.8,1.8,0,0,0,0-1.21l-5.86-15.35a1.83,1.83,0,0,1-.08-1.06l.85-4.07Z" fill="#fff"/><path d="M232.55,81.58a9.46,9.46,0,0,1-3.52-.65A5.92,5.92,0,0,1,225.29,77h0a5.89,5.89,0,0,1,1.37-5.25,10.83,10.83,0,0,1,11.76-3,5.58,5.58,0,0,1,2.37,9.19,10.29,10.29,0,0,1-5.42,3.31A11,11,0,0,1,232.55,81.58Zm-5.83-5a4.48,4.48,0,0,0,2.86,2.94A9.38,9.38,0,0,0,239.64,77a4.11,4.11,0,0,0-1.77-6.88,9.38,9.38,0,0,0-10.07,2.59,4.48,4.48,0,0,0-1.08,4Z" fill="#fff"/><path d="M237.17,68a38.87,38.87,0,0,0,.14,5.52c.08,1.54-5.31,3-6.7,1.58s-.84-2.84-1.17-8.08S237.17,68,237.17,68Z" fill="#ffc2b0"/><path d="M229.44,67s1.32,4.86,7.87,6.72l-.1-4.42Z" fill="#ea9c92"/><circle cx="236.81" cy="57.66" r="11.9" transform="translate(69.69 235.07) rotate(-60.4)" fill="#ffc2b0"/><path d="M234.08,58.1s6.55,2.8,11.08,2.84,3.54-3.77,3.54-3.77l-13.47-1.94Z" fill="#ea9c92"/><path d="M246.51,58.84s-5.7-2.42-10.71-1.41a5.19,5.19,0,0,0-3,1.79,1.77,1.77,0,0,1-.92.67c-.89.2-2.34-3.49-4.06-3.57s-2.88,1.14-1.47,3.4.94,4.8.29,5.16-8.71-5.25-2.62-17.32,22.71-5.23,25.12-2.78c0,0,2.53,2.21,4.59.24C253.71,45,256,62.33,246.51,58.84Z" fill="#396caa"/><path d="M224.5,108.72v9a3.69,3.69,0,0,0,1.21,2.73l18.59,17-2.12,3.23-25.61-16.8a5,5,0,0,1-2-3.51l-1.75-16.8Z" fill="#ffc2b0"/><path d="M217.14,79.72s-5.64,8.48-7.74,30.81c0,0,9.63,3.12,15.1,1.35S217.14,79.72,217.14,79.72Z" fill="#ff2c9c"/><path d="M225.53,90.45s2.21,11.81,2.34,17.37a3.55,3.55,0,0,1-2.34,3.42h0Z" fill="#d3008d"/><path d="M230.36,149.2l4.1-.54L261,133.35a3.67,3.67,0,0,1,3.31.14l18.8,10.84,2.48-.32v2.47h0a1,1,0,0,1-.57.87L255,164.7a3.68,3.68,0,0,1-3.32-.13l-20.46-11.82a1.32,1.32,0,0,1-.81-1.11h0Z" fill="#d4ecff"/><path d="M250.28,139.53l1.89-1.09h20.71l10.22,5.89,2.48-.32v2.47h0a1,1,0,0,1-.57.87L255,164.7a3.11,3.11,0,0,1-1.71.33Z" fill="#d4ecff"/><path d="M284.48,144.15l1.1-.14v2.47h0a1,1,0,0,1-.57.87l-.53.31Z" fill="#5793ce"/><path d="M254.65,164.84a3.85,3.85,0,0,1-2.82-.17v-4.21h2.82Z" fill="#d4ecff"/><path d="M255,162.23,285,144.88c.85-.49.74-1.35-.24-1.92L264.3,131.15A3.67,3.67,0,0,0,261,131l-30.06,17.36c-.85.49-.75,1.35.24,1.91l20.46,11.81A3.69,3.69,0,0,0,255,162.23Z" fill="#fff"/><path d="M255.46,159.6l25-14.43c.71-.41.62-1.12-.19-1.59l-11-6.17a3.07,3.07,0,0,0-2.76-.11l-25,14.43c-.71.41-.62,1.12.19,1.59l11,6.17A3.07,3.07,0,0,0,255.46,159.6Z" fill="#d4ecff"/><path d="M263.14,130.58l.31,2.07a15.33,15.33,0,0,1-.13,5.32L263,139.8a2.58,2.58,0,0,1-2.06,2h0a1.41,1.41,0,0,1-1.66-1.24l-.5-4.43s-1.14,1.48-1.68,1.48.61-4.44,1.85-6.95S263.14,130.58,263.14,130.58Z" fill="#ffc2b0"/><path d="M253,97.62l3.23,6.38a12.61,12.61,0,0,1,1.32,4.85l1.4,21.83,4.24-.1,1.93-24.52a9.08,9.08,0,0,0-.11-2.27l-2.2-12.43Z" fill="#ffc2b0"/><path d="M256,163.9l2.52-3.29L285,145.26a3.69,3.69,0,0,0,1.54-2.94l0-21.7,1.52-2-1.43-.83h0a1,1,0,0,0-1,.06l-30,17.39A3.67,3.67,0,0,0,254,138.2l0,23.63a1.34,1.34,0,0,0,.56,1.26h0Z" fill="#fff"/><path d="M274.3,151.46l1.88-1.09,10.34-18V120.62l1.52-2-1.43-.83h0a1,1,0,0,0-1,.06l-30,17.39a3.13,3.13,0,0,0-1.13,1.33Z" fill="#fff"/><path d="M287.35,119.51l.68-.88-1.43-.83h0a1,1,0,0,0-1,.06l-.53.31Z" fill="#fff"/><path d="M255.25,135.45A3.81,3.81,0,0,0,254,138l2.94,1.69,1.41-2.44Z" fill="#fff"/><path d="M257,136.08l30-17.39c.85-.49,1.54,0,1.54,1.16l0,23.64a3.69,3.69,0,0,1-1.54,2.94l-30,17.39c-.85.49-1.54,0-1.54-1.16l0-23.63A3.66,3.66,0,0,1,257,136.08Z" fill="#d4ecff"/><path d="M288.53,119.85c0-.87-.41-1.36-1-1.33a1.69,1.69,0,0,1,.22.87l0,23.63a3.69,3.69,0,0,1-1.54,2.94l-30,17.39a1.19,1.19,0,0,1-.56.17.88.88,0,0,0,1.32.3l30-17.39a3.69,3.69,0,0,0,1.54-2.94Z" fill="#fff"/><path d="M242.18,140.67l.48,1a6.8,6.8,0,0,0,2.51,2.78l3,1.84a3,3,0,0,0,3,.07l.11-.06a1.8,1.8,0,0,0,.25-2.76l-3.12-3.21s1.75,1.35,2.24.8c.36-.39-1.69-2.32-3.28-2.39a6.17,6.17,0,0,1-3.1-1.3Z" fill="#ffc2b0"/><path d="M250.09,68.36s11.43,12.44,16,23.85a23.33,23.33,0,0,1-13.48,9.8C243.09,104.78,250.09,68.36,250.09,68.36Z" fill="#ff2c9c"/><path d="M254.81,101.28,253,83.38l4.37,16.77C256.54,100.55,255.7,100.93,254.81,101.28Z" fill="#d3008d"/><path d="M241.53,65.85,244.6,65A7.39,7.39,0,0,1,241,67.9c-2.14.59-2.47-1.22-2.47-1.22Z" fill="#fff"/><path d="M225.12,60.94a1.71,1.71,0,1,0,1.71-1.71A1.72,1.72,0,0,0,225.12,60.94Z" fill="#fff"/><path d="M335.41,119.28,303.06,100.6a1.65,1.65,0,0,0-1.67-.13v0l-3.13,1.81,2.2.81v23.55a6.24,6.24,0,0,0,2.6,5L334,149.45v2.76l3.17-1.83h0a2.31,2.31,0,0,0,.88-2.08V124.25A6.21,6.21,0,0,0,335.41,119.28Z" fill="#d3008d"/><path d="M332.22,152.11l-32.35-18.67a6.24,6.24,0,0,1-2.61-5V104.41c0-1.92,1.17-2.8,2.61-2l32.35,18.68a6.26,6.26,0,0,1,2.6,5v24C334.82,152.06,333.65,152.94,332.22,152.11Z" fill="#ff2c9c"/><path d="M333,120.75l-32.35-18.68a1.55,1.55,0,0,0-2,.08,2,2,0,0,1,1.17.29l32.35,18.68a6.26,6.26,0,0,1,2.6,5v24a2.58,2.58,0,0,1-.64,1.89c.84-.08,1.43-.9,1.43-2.26V125.72A6.26,6.26,0,0,0,333,120.75Z" fill="#fff"/><path d="M310.75,125.15c0,1.39-1,1.95-2.19,1.26a4.84,4.84,0,0,1-2.18-3.78c0-1.39,1-2,2.18-1.26A4.81,4.81,0,0,1,310.75,125.15Z" fill="#fff"/><path d="M317.36,129c0,1.39-1,1.95-2.19,1.26a4.84,4.84,0,0,1-2.18-3.78c0-1.4,1-2,2.18-1.26A4.8,4.8,0,0,1,317.36,129Z" fill="#fff"/><path d="M324,132.78c0,1.39-1,2-2.18,1.26a4.81,4.81,0,0,1-2.19-3.78c0-1.39,1-1.95,2.19-1.26A4.84,4.84,0,0,1,324,132.78Z" fill="#fff"/><path d="M317,89,284.65,70.36a1.65,1.65,0,0,0-1.67-.13v0L279.85,72l2.2.8V96.38a6.24,6.24,0,0,0,2.6,5l30.92,17.85V122l3.17-1.83h0a2.31,2.31,0,0,0,.88-2.08V94A6.2,6.2,0,0,0,317,89Z" fill="#5793ce"/><path d="M313.81,121.87l-32.35-18.68a6.21,6.21,0,0,1-2.6-5v-24c0-1.92,1.16-2.8,2.6-2l32.35,18.68a6.24,6.24,0,0,1,2.6,5V119.9C316.41,121.82,315.24,122.7,313.81,121.87Z" fill="#d4ecff"/><path d="M314.6,90.51,282.25,71.83a1.55,1.55,0,0,0-2,.08,2,2,0,0,1,1.17.29l32.35,18.68a6.24,6.24,0,0,1,2.6,5V119.9a2.58,2.58,0,0,1-.64,1.89c.85-.08,1.43-.9,1.43-2.26v-24A6.21,6.21,0,0,0,314.6,90.51Z" fill="#fff"/><path d="M292.34,94.91c0,1.39-1,2-2.19,1.26A4.84,4.84,0,0,1,288,92.39c0-1.4,1-2,2.18-1.26A4.8,4.8,0,0,1,292.34,94.91Z" fill="#fff"/><path d="M299,98.72c0,1.39-1,2-2.18,1.26a4.81,4.81,0,0,1-2.19-3.78c0-1.39,1-2,2.19-1.26A4.84,4.84,0,0,1,299,98.72Z" fill="#fff"/><path d="M305.56,102.54c0,1.39-1,2-2.18,1.26A4.82,4.82,0,0,1,301.2,100c0-1.39,1-2,2.18-1.26A4.84,4.84,0,0,1,305.56,102.54Z" fill="#fff"/></svg>